<?xml version="1.0" encoding="UTF-8" standalone="no"?>
<!-- Generator: Adobe Illustrator 24.0.1, SVG Export Plug-In . SVG Version: 6.00 Build 0)  -->

<svg
   version="1.1"
   id="Layer_1"
   x="0px"
   y="0px"
   width="1000px"
   height="1000px"
   viewBox="0 0 1000 1000"
   style="enable-background:new 0 0 1000 1000;"
   xml:space="preserve"
   sodipodi:docname="initEdit.svg"
   inkscape:version="1.2.1 (9c6d41e4, 2022-07-14)"
   xmlns:inkscape="http://www.inkscape.org/namespaces/inkscape"
   xmlns:sodipodi="http://sodipodi.sourceforge.net/DTD/sodipodi-0.dtd"
   xmlns="http://www.w3.org/2000/svg"
   xmlns:svg="http://www.w3.org/2000/svg"><defs
   id="defs993">
	
	
















	
	















</defs><sodipodi:namedview
   id="namedview991"
   pagecolor="#ffffff"
   bordercolor="#000000"
   borderopacity="0.25"
   inkscape:showpageshadow="2"
   inkscape:pageopacity="0.0"
   inkscape:pagecheckerboard="0"
   inkscape:deskcolor="#d1d1d1"
   showgrid="false"
   inkscape:zoom="0.57558492"
   inkscape:cx="674.09688"
   inkscape:cy="429.99737"
   inkscape:window-width="1403"
   inkscape:window-height="779"
   inkscape:window-x="37"
   inkscape:window-y="25"
   inkscape:window-maximized="0"
   inkscape:current-layer="illustration" />
<g
   id="illustration"
   style="fill:#000000;stroke-width:1.02752"
   transform="matrix(1,0,0,0.94714946,0,4.0713532)">
	
	
	
	
	
	
	
	
	
	
	
	
	
	
	
	
	
	
	
	
	
	
	
	
	
	
	
	
	
	
	
<path
   d="m 492.26263,77.115077 c -2.96827,0.305586 -9.71435,1.680714 -12.18148,2.482885 -4.12475,1.298737 -10.13839,4.392775 -13.14522,6.761053 -5.78235,4.545577 -10.25403,11.153847 -12.25858,18.067705 -0.46259,1.56612 -1.92745,9.09113 -3.23811,16.76894 l -2.39004,13.94232 -21.85728,4.08719 c -21.31761,3.9726 -21.93439,4.08719 -23.6691,5.34773 -2.62133,1.87171 -3.54651,3.89621 -3.58505,7.86881 0,5.72971 2.35147,10.92465 6.78462,14.97364 2.89118,2.63567 5.43542,4.0108 9.25176,4.96576 2.73697,0.68756 4.27894,0.76397 18.889,0.76397 9.32887,0 17.15432,-0.15286 18.92758,-0.42019 3.12246,-0.42018 6.93881,-1.60431 9.56015,-2.90306 l 1.50341,-0.76396 2.65988,1.26054 c 5.47396,2.59748 5.9751,2.63567 31.10905,2.63567 25.13395,0 25.63508,-0.0382 31.10905,-2.63567 l 2.65988,-1.26054 1.50341,0.76396 c 2.62133,1.29875 6.43768,2.48288 9.56015,2.90306 1.77325,0.26739 9.5987,0.42019 18.92756,0.42019 14.61007,0 16.15203,-0.0764 18.88901,-0.76397 3.81635,-0.95496 6.36059,-2.33009 9.25176,-4.96576 4.43314,-4.04899 6.78463,-9.24393 6.78463,-14.97364 -0.0385,-3.9726 -0.96373,-5.9971 -3.58506,-7.86881 -1.7347,-1.26054 -2.35149,-1.37513 -23.66909,-5.34773 l -21.85728,-4.08719 -2.39004,-13.94232 c -1.34922,-7.67781 -2.58279,-14.59166 -2.77553,-15.35562 l -0.38549,-1.41332 1.8118,-0.72576 c 0.96373,-0.42018 2.73698,-0.95496 3.89345,-1.18415 2.0431,-0.42017 2.15875,-0.42017 2.69843,0.42019 2.39004,3.62882 6.82318,5.00395 10.71663,3.36143 2.31294,-0.99315 3.58505,-2.33008 4.51023,-4.73658 2.1202,-5.538704 -2.42859,-11.650408 -8.36513,-11.230234 -3.08392,0.229194 -5.55106,1.795321 -6.86173,4.392775 -0.88662,1.795321 -1.07937,1.948104 -2.69843,2.215514 -0.96372,0.15286 -3.12247,0.687564 -4.81862,1.222325 -1.65761,0.534762 -3.12247,0.802171 -3.16102,0.611172 -0.0771,-0.191075 -0.77098,-1.413324 -1.58051,-2.750256 -3.54651,-5.997097 -8.75062,-10.657281 -15.26541,-13.789515 -7.51705,-3.590623 -13.72344,-4.965751 -23.36069,-5.15675 -3.50796,-0.07643 -7.05447,-0.03821 -7.90255,0.03821 z m 15.34251,5.920706 c 5.93654,0.763974 12.83681,3.24684 17.11575,6.111703 3.04537,2.062693 6.66898,5.691511 8.63498,8.670962 2.69843,4.048992 2.69843,4.087212 0.46259,5.997102 -2.27439,1.9863 -5.35831,6.34087 -6.82317,9.7023 -0.61679,1.33694 -1.34922,3.93441 -1.69616,5.80612 l -0.61679,3.39964 h -33.84602 c -32.14987,0 -33.84603,-0.0382 -33.84603,-0.68758 0,-1.56611 2.39004,-14.20969 3.12247,-16.46338 2.58278,-8.021592 8.44223,-14.744449 16.34478,-18.640658 8.01819,-4.010797 19.23595,-5.385925 31.1476,-3.896209 z m 52.85068,13.713123 c 1.00227,0.954954 0.96372,2.903059 -0.0771,3.896214 -1.73471,1.71891 -4.81863,0.49656 -4.81863,-1.948128 0,-2.673846 2.89118,-3.819799 4.89573,-1.948086 z M 539.06112,114.702 c 0.65534,3.66702 1.19502,6.95205 1.19502,7.33403 0,0.61117 -0.46259,0.68758 -5.01137,0.68758 h -4.97282 l 0.19275,-1.26054 c 0.80953,-4.62197 3.04537,-9.35854 5.8209,-12.18519 0.77098,-0.80217 1.46486,-1.37513 1.50341,-1.33693 0.0771,0.0382 0.65533,3.09404 1.27211,6.76105 z m 28.56481,29.64171 c 11.95019,2.21549 22.05004,4.20179 22.39698,4.39279 1.8889,0.99315 2.39004,3.8198 1.34921,7.25764 -1.92745,6.30268 -7.01592,10.54265 -13.80054,11.49763 -1.69616,0.22917 -9.02047,0.30556 -18.23368,0.22917 -17.23141,-0.19107 -17.57835,-0.22917 -23.09085,-2.97945 -1.65761,-0.84035 -3.39232,-1.52791 -3.8549,-1.52791 -0.42404,0 -2.1973,0.68756 -3.89345,1.52791 -5.85945,2.90306 -5.39687,2.86486 -29.87548,2.86486 -24.47862,0 -24.01603,0.0382 -29.87548,-2.86486 -1.69616,-0.84035 -3.46941,-1.52791 -3.932,-1.52791 -0.46259,0 -2.19729,0.68756 -3.8549,1.52791 -5.35831,2.71206 -5.78235,2.78847 -23.05231,2.97945 -17.11576,0.15286 -19.77563,-0.0382 -23.55343,-1.7953 -5.24267,-2.44469 -9.02047,-8.05981 -9.02047,-13.52213 0,-1.52793 0.19271,-2.06269 1.07937,-2.90305 0.88663,-0.91676 1.77325,-1.18415 6.63043,-2.10089 3.08393,-0.57298 12.79827,-2.3683 21.58743,-4.04901 l 15.99785,-2.97944 47.64657,-0.0382 47.64656,-0.0382 z"
   id="path4915"
   style="fill:#000000;stroke:none;stroke-width:0.137003" /><path
   style="fill:#ffff00;stroke:#ff00ff;stroke-width:1.4175"
   d="m 459.4202,122.20385 c -2.36332,-0.27801 -2.3824,-0.72 -0.43446,-10.06848 1.95292,-9.37243 4.24592,-13.853164 9.76637,-19.084449 4.72777,-4.480125 8.94863,-6.775297 15.9975,-8.69897 6.03842,-1.647914 21.02099,-1.79504 26.98985,-0.265031 6.22492,1.59564 11.96013,4.476743 15.77173,7.922978 3.4012,3.075169 7.54605,8.336552 7.54605,9.578792 0,0.34345 -0.93269,1.53479 -2.07265,2.64742 -3.51088,3.42669 -6.07906,8.04624 -7.44392,13.38987 l -1.2679,4.96396 -31.479,-0.0816 c -17.31345,-0.0449 -32.33155,-0.18191 -33.37357,-0.30448 z"
   id="path4927" /><path
   style="fill:#ffff00;stroke:#ff00ff;stroke-width:1.4175"
   d="m 418.11742,166.86348 c -5.577,-1.33727 -10.73771,-6.28143 -11.95985,-11.45799 -0.78551,-3.32716 -0.37067,-5.46393 1.21715,-6.26943 0.62393,-0.31652 10.39244,-2.29928 21.70779,-4.40613 l 20.57337,-3.83063 48.38439,-0.13302 48.38439,-0.133 21.53109,4.07288 c 24.38146,4.61206 24.01027,4.47177 23.46108,8.86725 -0.65251,5.22239 -3.95156,9.62838 -9.14108,12.20822 -2.59779,1.29142 -2.80435,1.30408 -21.27748,1.30408 h -18.65422 l -4.73693,-2.07215 c -2.6053,-1.13968 -5.00459,-2.07215 -5.33173,-2.07215 -0.32714,0 -2.65505,0.93247 -5.17313,2.07215 l -4.57832,2.07215 h -23.90073 -23.90072 l -4.57832,-2.07215 c -2.51808,-1.13968 -4.91736,-2.07215 -5.33173,-2.07215 -0.41438,0 -2.81366,0.93247 -5.33173,2.07215 l -4.57833,2.07215 -17.48833,0.10569 c -9.61859,0.0581 -18.30207,-0.0894 -19.29663,-0.32792 z"
   id="path4929" /><path
   style="fill:#ffff00;stroke:#ff00ff;stroke-width:1.4175"
   d="m 531.07272,120.2617 c 0.96648,-4.07735 5.01994,-11.47245 6.28837,-11.47245 0.57423,0 2.5583,12.51013 2.09642,13.21853 -0.22064,0.33839 -2.2357,0.5958 -4.66418,0.5958 h -4.27571 z"
   id="path4933" /><path
   d="m 164.32353,285.35068 c 3.12978,5.78436 4.6133,12.39846 4.29011,19.12693 -0.39056,8.12584 -3.31593,15.84624 -8.45934,22.32677 -0.0674,0.0851 -0.13994,0.16354 -0.21678,0.23576 -0.7423,0.69764 -1.88145,0.79017 -2.67875,0.17342 -0.0123,-0.009 -0.0228,-0.0202 -0.0347,-0.03 -0.84671,-0.68774 -0.96431,-1.95029 -0.25482,-2.84422 4.58076,-5.77099 7.18579,-12.64808 7.53384,-19.88731 0.28806,-5.99456 -1.03271,-11.88551 -3.81908,-17.03587 -0.51949,-0.95994 -0.15846,-2.18235 0.79999,-2.76876 0.0202,-0.0124 0.0391,-0.0261 0.0599,-0.0379 1.00473,-0.57064 2.2495,-0.23861 2.77959,0.74118 z"
   id="path6700-0"
   style="stroke-width:1.02752" /><path
   d="m 69.60285,327.25789 -7.764356,-0.0482 c -2.451261,-0.015 -4.709271,-0.98243 -6.359192,-2.72421 -1.649921,-1.74178 -2.493493,-4.04887 -2.375845,-6.49698 0.08783,-1.82741 0.70265,-3.56812 1.763717,-5.04905 l -2.396995,-0.0148 c -2.450874,-0.015 -4.708883,-0.98243 -6.358804,-2.7242 -1.649922,-1.74178 -2.493494,-4.04887 -2.375846,-6.49698 0.11817,-2.46185 1.193066,-4.76636 3.026392,-6.48939 1.812334,-1.70329 4.152507,-2.63303 6.589207,-2.61761 l 2.3972,0.0146 c -0.917954,-1.49322 -1.365756,-3.2413 -1.277779,-5.06775 0.118149,-2.46146 1.192862,-4.76618 3.025984,-6.489 1.812334,-1.7033 4.152507,-2.63304 6.589799,-2.61781 l 25.009547,0.15476 c -0.917953,-1.49322 -1.365551,-3.2415 -1.277778,-5.06775 0.118557,-2.46185 1.193065,-4.76637 3.026392,-6.48939 1.812334,-1.70329 4.152506,-2.63303 6.589594,-2.61761 l 35.331743,0.21863 c 9.16089,0.0568 17.77854,3.41235 24.35811,9.46704 l 26.97197,0.17674 c 4.89437,0.0303 8.68515,4.03199 8.45044,8.92066 l -1.71508,35.68323 c -2e-4,0.004 -0.30351,6.31352 -0.30351,6.31352 -0.11456,2.38153 -1.15435,4.61108 -2.92796,6.27797 -1.75322,1.64774 -4.017,2.54728 -6.37602,2.53285 l -31.06733,-0.21841 c -6.3461,4.01583 -13.59543,6.11085 -21.00557,6.06512 l -43.678177,-0.27083 c -0.0027,-3e-5 -8.899105,-0.0551 -8.899105,-0.0551 -2.450669,-0.0152 -4.708679,-0.98262 -6.3586,-2.7244 -1.649921,-1.74178 -2.493697,-4.04867 -2.376253,-6.49659 0.08822,-1.82741 0.703038,-3.56811 1.764105,-5.04904 z m 80.08831,4.42084 2.77164,0.0194 28.96013,0.20326 c 1.26574,0.008 2.48105,-0.47499 3.42248,-1.35978 0.95223,-0.89493 1.51082,-2.09209 1.57202,-3.37102 l 0.20461,-4.25888 -8.94813,-0.0554 c -1.13514,-0.007 -2.01099,-0.93161 -1.95658,-2.06538 0.0548,-1.13337 1.01885,-2.04717 2.15396,-2.03982 l 8.94813,0.0554 1.61639,-33.63247 c 0.12607,-2.62461 -1.90933,-4.7731 -4.53787,-4.7897 l -25.70063,-0.16859 -2.05688,-0.0135 c -0.51311,-0.003 -0.9986,-0.19822 -1.36058,-0.5464 -5.92227,-5.6973 -13.81012,-8.86333 -22.21102,-8.9155 l -24.37881,-0.15082 -0.48635,10.11718 18.36616,0.11395 c 1.13513,0.007 2.01099,0.93162 1.95657,2.06539 -0.61539,12.80644 9.31634,23.29017 22.13918,23.36973 1.13514,0.007 2.01099,0.93161 1.95658,2.06538 -0.0274,0.56979 -0.28462,1.08397 -0.67798,1.45367 -0.38909,0.36568 -0.91152,0.58979 -1.47619,0.58635 -14.39765,-0.0893 -25.6978,-11.3259 -26.07459,-25.44721 l -49.051545,-0.30407 -0.486143,10.117 34.551218,0.21374 c 1.13493,0.007 2.01099,0.93162 1.95637,2.06558 -0.0273,0.56978 -0.28461,1.08397 -0.67778,1.45348 -0.38908,0.36567 -0.91152,0.58979 -1.47618,0.58634 l -44.603096,-0.27583 -0.486326,10.1168 44.603652,0.27642 c 1.13493,0.007 2.01098,0.93161 1.95637,2.06557 -0.0274,0.56979 -0.28462,1.08397 -0.67778,1.45348 -0.38908,0.36567 -0.91152,0.58979 -1.47618,0.58634 l -34.551014,-0.21393 -0.486346,10.11718 4.465928,0.0276 c 0.0029,2.2e-4 8.897168,0.0551 8.897168,0.0551 0.0015,2e-5 21.188304,0.13118 21.188304,0.13118 1.13493,0.007 2.01099,0.93162 1.95637,2.06558 -0.0273,0.56978 -0.28461,1.08397 -0.67777,1.45348 -0.38909,0.36567 -0.91153,0.58979 -1.47619,0.58634 l -19.132155,-0.11849 -0.486143,10.11699 41.624348,0.25816 c 6.6862,0.0414 13.22423,-1.87284 18.9268,-5.53934 0.38334,-0.3334 0.88225,-0.53394 1.41588,-0.53003 z M 91.929027,275.5491 c -0.06497,1.3513 0.400784,2.62458 1.311367,3.5858 0.910766,0.96142 2.157234,1.49543 3.510555,1.50384 l 6.842181,0.0424 0.48635,-10.11718 -6.842389,-0.0423 c -1.345184,-0.008 -2.6371,0.50496 -3.63743,1.44511 -1.012131,0.95086 -1.605446,2.22299 -1.670634,3.58224 z m -33.348163,14.02038 c -0.06515,1.35111 0.4006,2.62438 1.311367,3.5858 0.91097,0.96123 2.157233,1.49543 3.510555,1.50384 l 6.842387,0.0423 0.486143,-10.11699 -6.842184,-0.0424 c -1.345368,-0.009 -2.63708,0.50457 -3.637614,1.44491 -1.011947,0.95106 -1.605466,2.22338 -1.670654,3.58263 z m -10.734816,14.15993 c -0.06497,1.3513 0.40058,2.62477 1.31155,3.586 0.910767,0.96142 2.15705,1.49523 3.509984,1.50364 l 6.842184,0.0424 0.486142,-10.11699 -6.842571,-0.0425 c -1.344797,-0.008 -2.636305,0.50459 -3.636839,1.44492 -1.011763,0.95126 -1.605078,2.22339 -1.67045,3.58244 z m 21.031829,19.41733 0.486346,-10.11719 -6.838696,-0.0424 c -1.349079,-0.008 -2.640975,0.50492 -3.641101,1.44487 -1.011948,0.95106 -1.605262,2.22319 -1.670451,3.58244 -0.06497,1.3513 0.400784,2.62458 1.311551,3.586 0.910766,0.96142 2.15705,1.49523 3.510371,1.50364 z m 15.221838,4.20104 -6.845283,-0.0425 c -1.344062,-0.008 -2.634592,0.50518 -3.63431,1.44475 -1.011948,0.95106 -1.605263,2.22319 -1.670451,3.58243 -0.06515,1.35112 0.400784,2.62458 1.311551,3.586 0.91097,0.96123 2.157254,1.49505 3.510371,1.50365 l 6.842184,0.0424 z"
   id="path6702-3"
   style="stroke-width:1.02752" /><path
   style="fill:#ffcc00;stroke:#ff00ff;stroke-width:1.4175"
   d="m 136.39083,336.42737 c 2.62176,-0.51535 6.46174,-1.93702 8.53329,-3.15927 3.3571,-1.98073 5.63658,-2.22226 20.97351,-2.22226 18.21988,0 19.83028,-0.41718 19.83028,-5.13714 0,-2.24584 -0.51763,-2.51392 -4.85403,-2.51392 -2.66972,0 -5.17133,-0.5134 -5.55914,-1.14088 -1.35176,-2.1872 1.88605,-4.32416 6.55174,-4.32416 h 4.61498 l 0.73639,-17.0786 c 0.52459,-12.16639 0.37773,-17.51076 -0.5106,-18.58114 -0.95097,-1.14584 -4.93749,-1.50255 -16.7924,-1.50255 -13.90608,0 -15.74436,-0.21986 -17.43223,-2.08494 -1.03777,-1.14672 -4.43402,-3.21554 -7.54721,-4.59737 -5.0056,-2.22179 -7.43042,-2.51796 -20.96248,-2.56034 l -15.30213,-0.0479 -0.3347,4.0226 c -0.3313,3.98197 -0.2871,4.02894 4.3721,4.65053 2.58865,0.34537 7.16214,0.74854 10.16327,0.89594 l 5.45659,0.26801 0.73716,5.18871 c 1.38531,9.75094 7.12181,16.03245 16.88316,18.48718 6.59223,1.65777 7.72989,2.53295 6.00086,4.6163 -2.50729,3.0211 -13.13452,0.10131 -19.66168,-5.40197 -3.93699,-3.31941 -8.83265,-12.50477 -8.85046,-16.60542 l -0.0107,-2.45927 H 99.3802 75.3341 v 4.37203 4.37203 l 16.6683,0.0167 c 17.056,0.0171 20.2246,0.63236 19.048,3.69848 -0.5862,1.52768 -3.5898,1.74983 -23.659,1.74983 H 64.404 v 4.37203 4.37203 h 19.5375 c 22.6062,0 26.3688,0.48739 26.3688,3.41566 0,1.92104 -1.1294,2.04939 -18.0346,2.04939 H 74.241 v 2.64312 c 0,1.45372 -0.2985,3.42114 -0.6634,4.37204 -0.5839,1.52162 1.1524,1.74441 14.4824,1.85822 17.1502,0.14644 21.7038,0.80951 21.7038,3.16044 0,1.31028 -2.0839,1.68996 -10.6568,1.94162 l -10.6568,0.31283 v 4.17045 4.17045 l 9.0173,0.70196 c 12.1112,0.94279 33.04181,0.69465 38.92331,-0.46147 z m 19.82585,-10.10597 c 0,-0.79497 1.54561,-4.29907 3.43468,-7.78687 4.61996,-8.52985 5.41717,-18.28341 2.18508,-26.73359 -2.42918,-6.35101 -2.26405,-7.75446 0.9124,-7.75446 3.29766,0 6.04721,8.78909 5.98384,19.12765 -0.0531,8.6643 -1.95226,15.04643 -6.5863,22.13342 -1.7376,2.65738 -5.9297,3.37414 -5.9297,1.01385 z"
   id="path6830-2" /><path
   style="fill:#1c1c24;stroke:#ff00ff;stroke-width:1.4175"
   d="m 103.0673,278.00162 c 0.3767,-0.98175 0.685,-2.9744 0.685,-4.42812 0,-2.26296 -0.5202,-2.64312 -3.6167,-2.64312 -4.8208,0 -7.6185,2.16416 -7.144,5.52628 0.321,2.27364 1.048,2.7203 4.8839,3.00061 3.3695,0.24622 4.6797,-0.12113 5.1918,-1.45565 z"
   id="path6903-3" /><path
   style="fill:#1c1c24;stroke:#ff00ff;stroke-width:1.4175"
   d="m 69.869,289.51152 c 0,-4.25059 -0.1041,-4.37203 -3.7474,-4.37203 -2.0611,0 -4.5204,0.77291 -5.4651,1.71758 -3.6215,3.62155 -1.17,7.02648 5.0591,7.02648 4.117,0 4.1534,-0.0383 4.1534,-4.37203 z"
   id="path6905-6" /><path
   style="fill:#1c1c24;stroke:#ff00ff;stroke-width:1.4175"
   d="m 58.9389,303.72063 c 0,-4.22935 -0.1193,-4.37203 -3.6561,-4.37203 -4.8356,0 -7.9567,3.24005 -6.2296,6.46712 0.9202,1.7195 2.2795,2.27694 5.5521,2.27694 4.3272,0 4.3336,-0.006 4.3336,-4.37203 z"
   id="path6907-5" /><path
   style="fill:#1c1c24;stroke:#ff00ff;stroke-width:1.4175"
   d="m 68.776,317.92974 v -4.49772 l -4.534,0.33609 c -8.6913,0.64428 -8.6913,7.67898 0,8.32326 l 4.534,0.3361 z"
   id="path6909-5" /><path
   style="fill:#1c1c24;stroke:#ff00ff;stroke-width:1.4175"
   d="m 82.9851,332.13885 c 0,-4.25422 -0.1014,-4.37203 -3.7635,-4.37203 -4.5852,0 -7.7057,3.50843 -5.9831,6.72703 0.7707,1.44004 2.3191,2.01703 5.413,2.01703 4.3272,0 4.3336,-0.006 4.3336,-4.37203 z"
   id="path6911-8" /><path
   d="m 836.39761,287.37888 c -3.12978,5.78436 -4.6133,12.39846 -4.29011,19.12693 0.39056,8.12584 3.31593,15.84624 8.45934,22.32677 0.0674,0.0851 0.13994,0.16354 0.21678,0.23576 0.7423,0.69764 1.88145,0.79017 2.67875,0.17342 0.0123,-0.009 0.0228,-0.0202 0.0347,-0.03 0.84671,-0.68774 0.96431,-1.95029 0.25482,-2.84422 -4.58076,-5.77099 -7.18579,-12.64808 -7.53384,-19.88731 -0.28806,-5.99456 1.03271,-11.88551 3.81908,-17.03587 0.51949,-0.95994 0.15846,-2.18235 -0.79999,-2.76876 -0.0202,-0.0124 -0.0391,-0.0261 -0.0599,-0.0379 -1.00473,-0.57064 -2.2495,-0.23861 -2.77959,0.74118 z"
   id="path6700"
   style="stroke-width:1.02752" /><path
   d="m 931.11829,329.28609 7.76436,-0.0482 c 2.45126,-0.015 4.70927,-0.98243 6.35919,-2.72421 1.64992,-1.74178 2.49349,-4.04887 2.37584,-6.49698 -0.0878,-1.82741 -0.70265,-3.56812 -1.76371,-5.04905 l 2.39699,-0.0148 c 2.45087,-0.015 4.70888,-0.98243 6.35881,-2.7242 1.64992,-1.74178 2.49349,-4.04887 2.37584,-6.49698 -0.11817,-2.46185 -1.19306,-4.76636 -3.02639,-6.48939 -1.81234,-1.70329 -4.15251,-2.63303 -6.58921,-2.61761 l -2.3972,0.0146 c 0.91796,-1.49322 1.36576,-3.2413 1.27778,-5.06775 -0.11815,-2.46146 -1.19286,-4.76618 -3.02598,-6.489 -1.81234,-1.7033 -4.15251,-2.63304 -6.5898,-2.61781 l -25.00955,0.15476 c 0.91795,-1.49322 1.36555,-3.2415 1.27778,-5.06775 -0.11856,-2.46185 -1.19307,-4.76637 -3.02639,-6.48939 -1.81234,-1.70329 -4.15251,-2.63303 -6.5896,-2.61761 l -35.33174,0.21863 c -9.16089,0.0568 -17.77854,3.41235 -24.35811,9.46704 l -26.97197,0.17674 c -4.89437,0.0303 -8.68515,4.03199 -8.45044,8.92066 l 1.71508,35.68323 c 2e-4,0.004 0.30351,6.31352 0.30351,6.31352 0.11456,2.38153 1.15435,4.61108 2.92796,6.27797 1.75322,1.64774 4.017,2.54728 6.37602,2.53285 l 31.06733,-0.21841 c 6.3461,4.01583 13.59543,6.11085 21.00557,6.06512 l 43.67818,-0.27083 c 0.003,-3e-5 8.8991,-0.0551 8.8991,-0.0551 2.45067,-0.0152 4.70868,-0.98262 6.3586,-2.7244 1.64992,-1.74178 2.4937,-4.04867 2.37626,-6.49659 -0.0882,-1.82741 -0.70304,-3.56811 -1.76411,-5.04904 z m -80.08831,4.42084 -2.77164,0.0194 -28.96013,0.20326 c -1.26574,0.008 -2.48105,-0.47499 -3.42248,-1.35978 -0.95223,-0.89493 -1.51082,-2.09209 -1.57202,-3.37102 l -0.20461,-4.25888 8.94813,-0.0555 c 1.13514,-0.007 2.01099,-0.93161 1.95658,-2.06538 -0.0548,-1.13337 -1.01885,-2.04717 -2.15396,-2.03982 l -8.94813,0.0554 -1.61639,-33.63247 c -0.12607,-2.62461 1.90933,-4.7731 4.53787,-4.7897 l 25.70063,-0.16859 2.05688,-0.0135 c 0.51311,-0.003 0.9986,-0.19822 1.36058,-0.5464 5.92227,-5.6973 13.81012,-8.86333 22.21102,-8.9155 l 24.37881,-0.15082 0.48635,10.11718 -18.36616,0.11395 c -1.13513,0.007 -2.01099,0.93162 -1.95657,2.06539 0.61539,12.80644 -9.31634,23.29017 -22.13918,23.36973 -1.13514,0.007 -2.01099,0.93161 -1.95658,2.06538 0.0274,0.56979 0.28462,1.08397 0.67798,1.45367 0.38909,0.36568 0.91152,0.58979 1.47619,0.58635 14.39765,-0.0893 25.6978,-11.3259 26.07459,-25.44721 l 49.05155,-0.30407 0.48614,10.117 -34.55122,0.21374 c -1.13493,0.007 -2.01099,0.93162 -1.95637,2.06558 0.0273,0.56978 0.28461,1.08397 0.67778,1.45348 0.38908,0.36567 0.91152,0.58979 1.47618,0.58634 l 44.6031,-0.27583 0.48632,10.1168 -44.60365,0.27642 c -1.13493,0.007 -2.01098,0.93161 -1.95637,2.06557 0.0274,0.56979 0.28462,1.08397 0.67778,1.45348 0.38908,0.36567 0.91152,0.58979 1.47618,0.58634 l 34.55101,-0.21393 0.48635,10.11718 -4.46593,0.0276 c -0.003,2.2e-4 -8.89717,0.0551 -8.89717,0.0551 -0.002,2e-5 -21.1883,0.13118 -21.1883,0.13118 -1.13493,0.007 -2.01099,0.93162 -1.95637,2.06558 0.0274,0.56978 0.28461,1.08397 0.67777,1.45348 0.38909,0.36567 0.91153,0.58979 1.47619,0.58634 l 19.13216,-0.11849 0.48614,10.11699 -41.62435,0.25816 c -6.6862,0.0414 -13.22423,-1.87284 -18.9268,-5.53934 -0.38334,-0.3334 -0.88225,-0.53394 -1.41588,-0.53003 z m 57.76213,-56.12963 c 0.065,1.3513 -0.40078,2.62458 -1.31136,3.5858 -0.91077,0.96142 -2.15724,1.49543 -3.51056,1.50384 l -6.84218,0.0424 -0.48635,-10.11718 6.84239,-0.0422 c 1.34518,-0.008 2.6371,0.50496 3.63743,1.44511 1.01213,0.95086 1.60544,2.22299 1.67063,3.58224 z m 33.34817,14.02038 c 0.0652,1.35111 -0.4006,2.62438 -1.31137,3.5858 -0.91097,0.96123 -2.15723,1.49543 -3.51056,1.50384 l -6.84238,0.0423 -0.48615,-10.11699 6.84219,-0.0424 c 1.34537,-0.009 2.63708,0.50457 3.63761,1.44491 1.01195,0.95106 1.60547,2.22338 1.67066,3.58263 z m 10.73481,14.15993 c 0.065,1.3513 -0.40058,2.62477 -1.31155,3.586 -0.91076,0.96142 -2.15705,1.49523 -3.50998,1.50364 l -6.84219,0.0424 -0.48614,-10.11699 6.84257,-0.0424 c 1.3448,-0.008 2.63631,0.50459 3.63684,1.44492 1.01177,0.95126 1.60508,2.22339 1.67045,3.58244 z m -21.03183,19.41733 -0.48634,-10.11719 6.83869,-0.0424 c 1.34908,-0.008 2.64098,0.50492 3.6411,1.44487 1.01195,0.95106 1.60527,2.22319 1.67045,3.58244 0.065,1.3513 -0.40078,2.62458 -1.31155,3.586 -0.91076,0.96142 -2.15705,1.49523 -3.51037,1.50364 z m -15.22184,4.20104 6.84529,-0.0425 c 1.34406,-0.008 2.63459,0.50518 3.63431,1.44475 1.01195,0.95106 1.60526,2.22319 1.67045,3.58243 0.0652,1.35112 -0.40079,2.62458 -1.31155,3.586 -0.91097,0.96123 -2.15726,1.49505 -3.51037,1.50365 l -6.84219,0.0424 z"
   id="path6702"
   style="stroke-width:1.02752" /><path
   style="fill:#ffcc00;stroke:#ff00ff;stroke-width:1.4175"
   d="m 864.3303,338.45557 c -2.62176,-0.51535 -6.46174,-1.93702 -8.53329,-3.15927 -3.3571,-1.98073 -5.63658,-2.22226 -20.97351,-2.22226 -18.21988,0 -19.83028,-0.41718 -19.83028,-5.13714 0,-2.24584 0.51763,-2.51392 4.85403,-2.51392 2.66972,0 5.17133,-0.5134 5.55914,-1.14088 1.35176,-2.1872 -1.88605,-4.32416 -6.55174,-4.32416 h -4.61498 l -0.73639,-17.0786 c -0.52459,-12.16639 -0.37773,-17.51076 0.5106,-18.58114 0.95097,-1.14584 4.93749,-1.50255 16.7924,-1.50255 13.90608,0 15.74436,-0.21986 17.43223,-2.08494 1.03777,-1.14672 4.43402,-3.21554 7.54721,-4.59737 5.0056,-2.22179 7.43042,-2.51796 20.96248,-2.56034 l 15.30213,-0.0479 0.3347,4.0226 c 0.3313,3.98197 0.2871,4.02894 -4.3721,4.65053 -2.58865,0.34537 -7.16214,0.74854 -10.16327,0.89594 l -5.45659,0.26801 -0.73716,5.18871 c -1.38531,9.75094 -7.12181,16.03245 -16.88316,18.48718 -6.59223,1.65777 -7.72989,2.53295 -6.00086,4.6163 2.50729,3.0211 13.13452,0.10131 19.66168,-5.40197 3.93699,-3.31941 8.83265,-12.50477 8.85046,-16.60542 l 0.0107,-2.45927 h 24.0462 24.0461 v 4.37203 4.37203 l -16.6683,0.0167 c -17.056,0.0171 -20.2246,0.63236 -19.048,3.69848 0.5862,1.52768 3.5898,1.74983 23.659,1.74983 h 22.9874 v 4.37203 4.37203 h -19.5375 c -22.6062,0 -26.3688,0.48739 -26.3688,3.41566 0,1.92104 1.1294,2.04939 18.0346,2.04939 h 18.0347 v 2.64312 c 0,1.45372 0.2985,3.42114 0.6634,4.37204 0.5839,1.52162 -1.1524,1.74441 -14.4824,1.85822 -17.1502,0.14644 -21.7038,0.80951 -21.7038,3.16044 0,1.31028 2.0839,1.68996 10.6568,1.94162 l 10.6568,0.31283 v 4.17045 4.17045 l -9.0173,0.70196 c -12.1112,0.94279 -33.04181,0.69465 -38.92331,-0.46147 z M 844.50445,328.3496 c 0,-0.79497 -1.54561,-4.29907 -3.43468,-7.78687 -4.61996,-8.52985 -5.41717,-18.28341 -2.18508,-26.73359 2.42918,-6.35101 2.26405,-7.75446 -0.9124,-7.75446 -3.29766,0 -6.04721,8.78909 -5.98384,19.12765 0.0531,8.6643 1.95226,15.04643 6.5863,22.13342 1.7376,2.65738 5.9297,3.37414 5.9297,1.01385 z"
   id="path6830" /><path
   style="fill:#1c1c24;stroke:#ff00ff;stroke-width:1.4175"
   d="m 897.65383,280.02982 c -0.3767,-0.98175 -0.685,-2.9744 -0.685,-4.42812 0,-2.26296 0.5202,-2.64312 3.6167,-2.64312 4.8208,0 7.6185,2.16416 7.144,5.52628 -0.321,2.27364 -1.048,2.7203 -4.8839,3.00061 -3.3695,0.24622 -4.6797,-0.12113 -5.1918,-1.45565 z"
   id="path6903" /><path
   style="fill:#1c1c24;stroke:#ff00ff;stroke-width:1.4175"
   d="m 930.85213,291.53972 c 0,-4.25059 0.1041,-4.37203 3.7474,-4.37203 2.0611,0 4.5204,0.77291 5.4651,1.71758 3.6215,3.62155 1.17,7.02648 -5.0591,7.02648 -4.117,0 -4.1534,-0.0383 -4.1534,-4.37203 z"
   id="path6905" /><path
   style="fill:#1c1c24;stroke:#ff00ff;stroke-width:1.4175"
   d="m 941.78223,305.74883 c 0,-4.22935 0.1193,-4.37203 3.6561,-4.37203 4.8356,0 7.9567,3.24005 6.2296,6.46712 -0.9202,1.7195 -2.2795,2.27694 -5.5521,2.27694 -4.3272,0 -4.3336,-0.006 -4.3336,-4.37203 z"
   id="path6907" /><path
   style="fill:#1c1c24;stroke:#ff00ff;stroke-width:1.4175"
   d="m 931.94513,319.95794 v -4.49772 l 4.534,0.33609 c 8.6913,0.64428 8.6913,7.67898 0,8.32326 l -4.534,0.3361 z"
   id="path6909" /><path
   style="fill:#1c1c24;stroke:#ff00ff;stroke-width:1.4175"
   d="m 917.73603,334.16705 c 0,-4.25422 0.1014,-4.37203 3.7635,-4.37203 4.5852,0 7.7057,3.50843 5.9831,6.72703 -0.7707,1.44004 -2.3191,2.01703 -5.413,2.01703 -4.3272,0 -4.3336,-0.006 -4.3336,-4.37203 z"
   id="path6911" /><path
   d="m 524.4407,240.51566 c -9.16947,4.83705 -15.01897,6.04634 -28.69413,6.04634 -12.96374,0 -13.04279,0 -21.34275,-3.44177 -7.98376,-3.25572 -8.29995,-3.34875 -9.56471,-1.76737 -3.47808,4.37194 -7.50948,5.86028 -39.5236,14.60423 l -32.72555,8.92997 -35.09696,15.72049 c -19.36656,8.65091 -35.41315,15.99954 -35.80838,16.46466 -0.63238,0.74414 18.33895,86.1371 19.36656,87.34635 0.3162,0.37189 14.86088,0 32.40936,-0.74417 17.46943,-0.83717 31.93507,-1.30228 32.01412,-1.20925 0.31619,0.27901 1.26475,41.48717 2.45046,111.06661 0.47429,25.3016 1.10666,52.18458 1.34381,59.71924 l 0.47428,13.76706 h 87.66335 87.66335 v -13.76706 c 0,-7.53466 -0.39523,-48.92883 -0.86952,-92.09042 -0.55333,-43.06854 -0.79047,-78.50941 -0.63237,-78.69543 0.15807,-0.27902 15.88848,-1.02323 34.93887,-1.76741 19.12941,-0.83716 34.93884,-1.67437 35.176,-1.95342 0.47427,-0.55811 15.25612,-90.04396 14.93992,-90.41608 -0.0791,-0.18574 -15.73039,-6.13934 -34.70173,-13.30195 -34.06934,-12.83682 -34.93886,-13.11588 -65.60917,-20.37147 -25.13702,-6.04635 -31.77698,-7.90678 -34.93887,-10.04623 -2.13427,-1.39532 -4.03141,-3.34875 -4.26855,-4.27895 -0.39523,-2.04645 -0.47428,-2.04645 -4.66379,0.18615 z m 3.24094,2.41854 c 0.86952,2.51154 0.47428,8.46489 -0.47428,9.48808 -1.58095,1.48835 -12.96374,4.65103 -21.18465,5.86033 -11.22471,1.58134 -22.13322,0.37188 -35.72934,-3.90686 l -3.00379,-0.93024 v -5.48819 c 0,-3.06969 0.15807,-5.58127 0.31619,-5.58127 0.23716,0 3.71522,1.30229 7.74663,2.97666 13.51707,5.3952 33.35792,4.55804 46.87499,-1.95339 4.90093,-2.32555 4.82188,-2.32555 5.45426,-0.46512 z m -59.60159,22.69704 c 4.42664,17.1158 13.35897,25.58065 28.06176,26.69691 15.09801,1.20926 26.00652,-6.60445 30.51222,-21.76683 1.81808,-6.04635 3.39903,-19.81341 2.76665,-23.72026 -0.23715,-1.48835 -0.15812,-2.60457 0.15812,-2.41855 7.43043,4.18595 7.74662,4.93013 6.95615,14.32517 -0.63238,7.62773 -3.16189,17.20884 -6.00759,23.16215 -2.52951,5.11615 -8.37901,12.18573 -12.64755,15.16238 -10.51328,7.2556 -29.6427,6.79048 -40.15598,-1.11626 -9.56472,-7.1626 -16.59992,-22.69703 -19.52467,-43.06855 -0.47428,-3.81386 -0.47428,-3.90689 2.68761,-5.76729 1.73904,-1.11622 3.39903,-2.4185 3.79427,-3.06969 0.39523,-0.74413 0.86952,2.23253 1.18571,7.16261 0.31619,4.558 1.3438,11.06946 2.21332,14.41821 z M 456.6182,253.25949 c 2.29237,15.99954 6.79806,28.83637 13.12184,37.0222 7.50948,9.67415 15.73039,13.48801 28.61509,13.48801 13.04279,0 20.94751,-3.62784 28.2989,-12.6508 6.71901,-8.46489 11.77803,-24.18538 11.77803,-36.74315 0,-2.51158 0.23716,-4.55804 0.63238,-4.55804 0.31619,0 13.59612,2.97666 29.56365,6.69749 19.05038,4.46501 29.08938,7.16257 29.08938,7.90678 0,0.6511 -3.71522,16.18557 -8.29996,34.60366 l -8.29996,33.4874 1.18571,98.41585 c 0.63238,54.13801 1.18571,106.50857 1.18571,116.27575 v 17.95297 h -86.08241 -86.08241 l -0.47428,-10.41828 c -0.47428,-10.60438 -1.02761,-38.7896 -3.31998,-167.25108 l -1.26476,-71.16078 -5.84949,-23.90628 c -3.24094,-13.20896 -5.8495,-24.55747 -5.8495,-25.39468 0,-0.74413 0.63238,-1.39527 1.42285,-1.39527 0.71143,-0.0933 13.99136,-3.53481 29.40556,-7.90674 15.41421,-4.27899 28.69414,-7.81375 29.40556,-7.81375 0.94857,-0.0933 1.5019,0.93019 1.81809,3.34874 z m 70.58916,7.2556 c -2.45047,18.60411 -11.22471,28.83641 -25.84844,29.95263 -7.58853,0.65118 -13.75421,-0.83717 -19.12942,-4.65103 -6.95616,-4.93008 -12.64756,-15.62746 -13.91231,-26.2318 l -0.39523,-3.90689 7.35138,2.32555 c 6.32378,1.95343 9.32758,2.32547 20.078,2.41851 12.5685,0 20.86846,-1.20926 28.69413,-4.558 1.66,-0.65114 3.16189,-1.02323 3.39904,-0.83717 0.23715,0.18574 0.15807,2.60457 -0.23716,5.4882 z m 89.95571,10.13926 c 8.61615,3.25571 22.05417,8.37186 29.80082,11.25548 13.20088,4.93009 14.14942,5.39521 13.67515,7.2556 -0.23723,1.11626 -4.03141,21.30176 -8.45804,44.83596 -4.3476,23.53419 -8.14185,43.06854 -8.45805,43.3476 -0.55335,0.65114 -59.36446,3.06969 -59.83874,2.51158 -0.15812,-0.18615 -0.47429,-10.60438 -0.79048,-23.16215 l -0.63237,-22.88306 8.61614,-34.51066 c 4.66379,-19.06924 8.93234,-34.60366 9.40661,-34.60366 0.4743,0 7.98378,2.69756 16.67896,5.95331 z m -218.48647,21.6738 6.08663,24.92952 0.23716,31.627 0.23715,31.627 -27.19224,1.20929 c -14.93992,0.65115 -27.35033,0.9302 -27.50843,0.74418 -0.71142,-0.83717 -21.65893,-85.48596 -21.34274,-86.41616 0.23715,-0.93023 59.99683,-28.27825 62.21015,-28.46432 0.94857,-0.0933 2.68761,5.86028 7.27235,24.74349 z m 267.89097,-2.60457 c 0.39539,0.46508 -13.35895,86.50915 -13.99134,87.34635 -0.47427,0.83717 -6.63996,1.30229 -6.63996,0.55812 0,-0.9302 15.73039,-86.60218 16.2837,-88.55561 0.31631,-1.20929 3.24094,-0.74421 4.3476,0.65114 z m -329.15256,48.18466 c 5.6914,22.97609 10.67137,42.41741 10.90851,43.25461 0.47429,1.48831 0.079,1.67437 -2.92474,1.67437 h -3.47808 l -6.63996,-29.11546 c -3.55713,-15.90655 -7.90473,-34.97574 -9.56471,-42.32442 l -3.0038,-13.30194 1.73904,-0.83716 c 0.94857,-0.46512 1.89713,-0.83721 2.13427,-0.83721 0.23716,-0.0933 5.13807,18.60415 10.82947,41.48721 z"
   id="path4663"
   style="fill:#000000;stroke:none;stroke-width:0.137003" /><path
   style="fill:#ffff00;stroke:#ff00ff;stroke-width:1.41749"
   d="m 411.74122,560.56806 c -0.3364,-2.11482 -1.37513,-48.56699 -2.30828,-103.22703 -2.54253,-148.93045 -2.06824,-139.17811 -7.96685,-163.81333 -2.733,-11.41417 -5.274,-22.1358 -5.64669,-23.82582 l -0.67761,-3.07278 29.71529,-8.06002 c 16.3434,-4.43299 29.94101,-7.82645 30.21688,-7.541 0.27587,0.28545 1.34208,4.7293 2.36935,9.8752 3.92575,19.6653 11.2913,32.57772 22.19407,38.90806 5.26057,3.05438 7.71718,3.68204 16.00812,4.09001 11.47807,0.5648 17.1095,-0.76165 24.3756,-5.74154 9.41637,-6.45358 15.95428,-19.73884 18.3009,-37.18803 0.70218,-5.22129 1.40224,-9.67841 1.55572,-9.90472 0.32317,-0.47652 15.53444,2.93717 39.59933,8.88685 12.37869,3.06043 16.86571,4.63891 16.86571,5.93312 0,0.96984 -3.58205,16.49259 -7.96013,34.49499 l -7.96014,32.73163 1.06115,77.49423 c 0.58362,42.62182 1.07841,94.66421 1.0995,115.64977 l 0.0384,38.15555 h -85.13432 -85.13433 z"
   id="path4760" /><path
   style="fill:#ffff00;stroke:#ff00ff;stroke-width:1.41749"
   d="m 350.21985,379.62647 c -0.31801,-1.5056 -5.05726,-20.78083 -10.53167,-42.83386 -7.95045,-32.02745 -9.64702,-40.29835 -8.43069,-41.09998 2.07206,-1.36559 54.6414,-25.3665 57.73083,-26.35743 2.98844,-0.95853 3.78833,1.2754 10.63827,29.71059 l 4.61856,19.17242 v 30.70389 30.70389 l -10.5768,0.67047 c -5.81724,0.36876 -17.84284,0.9848 -26.72355,1.36898 l -16.14676,0.6985 z"
   id="path4762" /><path
   style="fill:#ffff00;stroke:#ff00ff;stroke-width:1.41749"
   d="m 584.48297,377.81729 c -0.33255,-1.16126 -0.71765,-11.96085 -0.8558,-23.99907 l -0.25115,-21.88767 7.628,-29.79996 c 8.50157,-33.21265 9.32207,-35.86308 11.10222,-35.86308 2.34331,0 55.40749,20.29753 56.69347,21.68576 0.95287,1.02865 -0.734,12.04006 -6.55577,42.79416 -4.31133,22.77501 -8.32494,42.5482 -8.91914,43.94043 -1.02756,2.40756 -2.07648,2.5671 -21.45846,3.26391 -11.20796,0.40295 -24.06825,1.0126 -28.57842,1.35478 -7.18822,0.54535 -8.27495,0.36154 -8.80495,-1.48926 z"
   id="path4764" /><path
   style="fill:#ffff00;stroke:#ff00ff;stroke-width:1.41749"
   d="m 488.63457,300.17618 c -7.91141,-2.30799 -14.22059,-7.15625 -18.66255,-14.34113 -4.66481,-7.54532 -9.70142,-22.38723 -10.43612,-30.75321 -0.46501,-5.29512 -0.21099,-6.1969 2.24845,-7.98193 l 2.77267,-2.01239 1.21721,9.75658 c 3.16203,25.34534 13.89664,37.81141 32.64683,37.9126 16.71218,0.0902 26.05805,-8.49108 29.95236,-27.50197 0.88563,-4.32334 1.61916,-10.38952 1.63007,-13.48042 0.0218,-6.14745 0.87967,-6.84619 4.01066,-3.26642 1.73577,1.98457 1.95339,3.69967 1.38859,10.94384 -1.90576,24.44329 -15.17168,40.65305 -34.24506,41.84442 -3.93394,0.24571 -9.56935,-0.25826 -12.52311,-1.11997 z"
   id="path4766" /><path
   style="fill:#ffff00;stroke:#ff00ff;stroke-width:1.41749"
   d="m 481.42723,256.64515 c -13.48703,-3.25204 -13.14953,-3.0391 -13.14953,-8.2966 0,-3.84416 0.35391,-4.67292 1.75755,-4.1156 14.88902,5.91172 33.58002,6.54816 47.41028,1.61437 4.71668,-1.68263 9.00193,-2.63292 9.52276,-2.11176 1.97299,1.97423 0.24408,7.70199 -2.77446,9.19162 -8.78502,4.33538 -31.87945,6.34311 -42.7666,3.71797 z"
   id="path4770" /><path
   style="fill:#ffff00;stroke:#ff00ff;stroke-width:1.41749"
   d="m 341.74302,378.95947 c -7.8088,-31.75631 -18.03186,-80.31656 -17.0514,-80.9953 1.63422,-1.13134 1.49187,-1.6099 12.63893,42.49146 5.39385,21.33979 10.03365,39.46513 10.31068,40.27853 0.31418,0.92245 -0.55016,1.47889 -2.29724,1.47889 -2.09931,0 -3.00132,-0.815 -3.60097,-3.25358 z"
   id="path4778" /><path
   style="fill:#ffff00;stroke:#ff00ff;stroke-width:1.41749"
   d="m 647.12107,374.22701 c 0.35681,-1.78947 4.02013,-21.59845 8.14072,-44.01995 4.1206,-22.4215 7.69443,-40.97581 7.94184,-41.23181 1.43386,-1.48363 2.64981,1.62617 2.1165,5.41297 -2.40095,17.04844 -12.94967,80.95337 -13.52069,81.90935 -0.38864,0.65065 -1.74622,1.18301 -3.01686,1.18301 -1.91524,0 -2.19933,-0.55629 -1.66151,-3.25357 z"
   id="path4780" /><path
   d="m 429.81754,238.52735 c -1.15575,1.32068 -1.30985,4.58354 -1.30985,31.4633 v 30.06493 h -6.08695 c -8.7837,0 -8.6296,-0.23306 -10.09355,14.76056 -2.23445,22.45159 -8.4755,46.76767 -17.25921,67.43246 l -2.7738,6.52572 v 74.4243 74.34661 l -3.5443,0.46612 c -6.39515,0.69919 -6.08695,-1.24299 -6.08695,35.50303 0,36.74603 -0.3082,34.80385 6.08695,35.50304 l 3.5443,0.46612 v 11.4977 c 0,9.40014 0.23115,11.65307 1.2328,12.66301 1.0787,1.08762 6.47221,1.24299 47.69397,1.24299 41.22176,0 46.61526,-0.15537 47.69396,-1.24299 1.6951,-1.63143 1.541,-10.25471 -0.23115,-15.84819 -1.2328,-4.11741 -1.2328,-4.50585 0.077,-8.77864 1.2328,-3.96205 1.3869,-7.61335 1.3869,-28.58888 v -24.00533 h 8.4755 8.4755 l 0.0771,24.23839 c 0,20.89785 0.23115,24.93758 1.3869,28.58888 1.2328,4.11742 1.2328,4.50585 -0.077,8.77865 -1.77215,5.82653 -1.8492,13.906 -0.1541,15.61512 1.0787,1.08762 6.47221,1.24299 47.69397,1.24299 41.22176,0 46.61526,-0.15537 47.69396,-1.24299 1.00165,-1.00994 1.2328,-3.26287 1.2328,-12.66301 v -11.4977 l 3.5443,-0.46612 c 6.39515,-0.69919 6.08695,1.24299 6.08695,-35.50304 0,-36.74602 0.3082,-34.80384 -6.08695,-35.50303 l -3.5443,-0.46612 v -74.34661 -74.4243 l -2.7738,-6.52572 c -8.7837,-20.66479 -15.02476,-44.98087 -17.25921,-67.43246 -1.46395,-14.99362 -1.30985,-14.76056 -10.09355,-14.76056 h -6.08695 v -30.14262 c 0,-28.27812 -0.077,-30.29799 -1.3869,-31.4633 -2.08035,-1.94218 -28.73966,-1.94218 -30.28066,-0.0777 -0.6164,0.69918 -5.3935,14.76056 -10.70995,31.30792 l -9.7083,29.98724 h -18.02971 -18.0297 L 470.8852,269.6799 c -5.31645,-16.54736 -10.09355,-30.60874 -10.70995,-31.30792 -0.84755,-1.08762 -3.082,-1.243 -15.1018,-1.243 -12.63621,0 -14.17721,0.15538 -15.25591,1.39837 z m 21.65106,58.49843 -0.23115,49.79747 -1.8492,1.47606 c -2.1574,1.7868 -6.0099,1.94218 -8.39845,0.23306 l -1.6951,-1.16531 v -50.10822 -50.03053 h 6.164 6.164 z m 106.48313,0.23306 v 50.10822 l -1.6951,1.16531 c -2.38855,1.70912 -6.24106,1.55374 -8.39846,-0.23306 l -1.8492,-1.47606 -0.23115,-49.79747 -0.1541,-49.79747 h 6.16401 6.164 z m -129.44404,32.47324 c 0,17.55729 0.077,19.03335 1.61805,22.21852 2.6197,5.28273 6.47221,7.45797 14.17721,7.76872 5.16235,0.23306 6.85745,0 9.32305,-1.243 7.3968,-3.80667 8.0132,-5.98191 8.0132,-28.89962 v -18.64492 h 36.98401 36.98401 v 18.64492 c 0,22.91771 0.6164,25.09295 8.0132,28.89962 2.4656,1.243 4.1607,1.47606 9.32306,1.243 7.705,-0.31075 11.5575,-2.48599 14.1772,-7.76872 1.541,-3.18517 1.61805,-4.66123 1.61805,-22.21852 v -18.8003 h 2.6197 2.54265 l 0.53935,5.59348 c 2.0033,21.20859 8.86075,48.3991 17.33626,68.44239 l 3.15905,7.45796 v 72.6375 72.63749 l -11.94276,0.23306 c -10.1706,0.23307 -12.09685,0.46613 -13.2526,1.63143 -1.30985,1.243 -1.3869,3.88436 -1.61805,33.01705 -0.1541,24.31608 0.077,32.08479 0.84755,33.56085 0.84755,1.70912 2.38855,2.33062 13.48375,4.97198 l 12.48211,3.10749 v 5.28272 5.28273 h -38.52501 c -21.18876,0 -38.52501,-0.23306 -38.52501,-0.6215 0,-0.31075 0.7705,-2.87442 1.61805,-5.74885 l 1.6951,-5.20504 -1.8492,-4.50585 c -1.77215,-4.35048 -1.8492,-5.28273 -2.08035,-28.35582 l -0.23115,-23.84995 4.85415,-0.23307 c 4.39185,-0.23306 4.9312,-0.38843 5.8558,-2.4083 1.0787,-2.33061 0.69345,-4.50585 -1.0787,-6.37034 -1.00165,-1.00994 -5.16235,-1.16531 -28.12326,-1.16531 -25.88881,0 -26.96751,0.0777 -28.43146,1.55374 -3.31315,3.34055 -1.6951,6.75878 5.08531,10.56545 l 5.00825,2.87443 -0.23115,21.05322 c -0.3082,19.88791 -0.38525,21.36397 -2.1574,26.25826 l -1.8492,5.28273 1.6951,4.8166 c 0.9246,2.71905 1.6951,5.12735 1.6951,5.4381 0,0.38844 -17.33626,0.6215 -38.52501,0.6215 h -38.52501 v -7.69103 -7.76872 l 11.94275,-0.23306 c 10.1706,-0.23306 12.09685,-0.46612 13.2526,-1.63143 1.30985,-1.24299 1.3869,-3.72898 1.3869,-33.94929 0,-30.2203 -0.077,-32.70629 -1.3869,-33.94929 -1.15575,-1.1653 -3.082,-1.39836 -13.2526,-1.63143 l -11.94275,-0.23306 v -72.5598 -72.55981 l 4.1607,-10.33239 c 8.3214,-20.50941 14.40835,-45.05856 16.3346,-65.72334 l 0.53935,-5.59348 h 2.54265 2.6197 z m -10.0165,222.80677 v 3.88436 h -12.71325 -12.71326 v -3.88436 -3.88436 h 12.71326 12.71325 z m 185.69055,0 v 3.88436 h -12.71325 -12.71326 v -3.88436 -3.88436 h 12.71326 12.71325 z m -185.69055,29.90956 v 15.92586 h -12.71325 -12.71326 v -15.92586 -15.92587 h 12.71326 12.71325 z m 185.69055,0 v 15.92586 h -12.71325 -12.71326 v -15.92586 -15.92587 h 12.71326 12.71325 z"
   id="path4794"
   style="fill:#000000;stroke:none;stroke-width:0.137003" /><path
   d="m 447.7702,398.01909 c -1.00165,0.46612 -2.1574,1.16531 -2.4656,1.70912 -0.3082,0.54381 -0.6164,25.24832 -0.6164,55.00251 0,51.4289 0.077,54.14795 1.3869,55.31325 1.30985,1.243 6.08695,1.32069 52.70221,1.32069 48.61856,0 51.31531,-0.0777 52.47106,-1.39837 1.23281,-1.32068 1.30986,-6.29266 1.30986,-55.39095 0,-29.67649 -0.3082,-54.30332 -0.6164,-54.84713 -0.30821,-0.46613 -1.54101,-1.32069 -2.69676,-1.70912 -2.85085,-1.08762 -98.70107,-1.08762 -101.47487,0 z m 80.13202,16.62505 -6.54925,6.60341 h -22.72976 -22.72975 l -6.54926,-6.60341 -6.54925,-6.60341 h 35.82826 35.82826 z m -29.27901,17.47961 h 26.42816 l 8.7837,-8.70096 8.70665,-8.70096 v 43.27175 43.27174 H 498.62321 454.7047 v -43.27174 -43.27175 l 8.70665,8.70096 8.7837,8.70096 z"
   id="path4796"
   style="fill:#000000;stroke:none;stroke-width:0.137003" /><path
   style="fill:#0000ff;stroke:#ff00ff;stroke-width:1.4175"
   d="m 454.90283,458.34184 v -42.21726 l 8.40243,8.17432 8.40242,8.17434 h 27.00962 27.00963 l 8.30829,-8.19198 8.30829,-8.19198 v 42.23492 42.23491 h -43.72034 -43.72034 z"
   id="path4878" /><path
   style="fill:#0000ff;stroke:#ff00ff;stroke-width:1.4175"
   d="m 470.20495,414.58626 -5.93687,-6.34698 h 34.35509 34.3551 l -5.93688,6.34698 -5.93687,6.347 h -22.48135 -22.48135 z"
   id="path4880" /><path
   style="fill:#0000ff;stroke:#ff00ff;stroke-width:1.4175"
   d="m 402.43843,617.28162 v -6.75528 l 12.80044,-1.03421 12.80045,-1.03421 0.92256,-4.616 c 0.50741,-2.53879 0.77242,-17.77077 0.58891,-33.84886 -0.39974,-35.02248 0.82689,-32.50601 -15.84468,-32.50601 h -11.26768 v -72.01729 -72.01731 l 3.36017,-7.89705 c 7.92109,-18.61614 15.056,-45.99403 17.12028,-65.69347 0.65256,-6.22742 1.24793,-8.03556 2.74598,-8.33956 1.7418,-0.35345 1.91859,0.98609 1.97792,14.98695 0.0841,19.84392 1.0128,25.69271 4.69733,29.58285 2.52699,2.66798 3.96854,3.11492 11.30908,3.50629 9.60293,0.51199 14.44532,-1.3926 16.70719,-6.57119 0.79479,-1.81968 1.57818,-10.91809 1.92819,-22.39435 l 0.58954,-19.32946 h 35.75802 35.75803 l 0.55937,19.32946 c 0.34072,11.77392 1.09092,20.52747 1.91923,22.39435 2.30064,5.18523 7.13147,7.08286 16.7284,6.57119 14.13896,-0.75382 15.88467,-4.36264 16.00641,-33.08914 0.0593,-14.00083 0.23612,-15.34041 1.97792,-14.98702 1.4826,0.30079 2.08781,2.0606 2.69113,7.82519 2.03007,19.39715 8.56275,45.17983 16.15528,63.76054 l 4.37485,10.70627 0.002,71.83638 0.003,71.83637 h -11.26768 c -16.8403,0 -15.51103,-3.11079 -15.51103,36.29906 0,28.1062 0.24415,33.18455 1.63951,34.10207 0.90173,0.59294 6.0662,2.15857 11.47659,3.4792 14.58806,3.56079 13.66261,3.01001 13.66261,8.13128 v 4.53823 H 556.6188 518.42985 l 1.69748,-5.25983 c 1.52378,-4.72159 1.52745,-5.75488 0.0359,-10.09749 -1.16828,-3.40127 -1.86324,-11.73046 -2.3406,-28.05242 l -0.67894,-23.21478 5.0028,-0.59535 c 2.75154,-0.32744 5.16331,-0.78607 5.35952,-1.01917 1.39238,-1.65428 1.48448,-5.51801 0.17659,-7.40836 -1.45458,-2.10234 -3.23687,-2.2676 -27.6036,-2.55948 -27.32851,-0.32735 -31.04729,0.22736 -31.87303,4.75436 -0.48682,2.66886 2.54264,6.17577 7.7667,8.99079 l 4.1283,2.22455 -0.67192,20.44411 c -0.42955,13.06982 -1.26305,22.42974 -2.31073,25.94898 -1.46102,4.90765 -1.45782,6.06574 0.0296,10.67448 l 1.66834,5.16961 H 440.62738 402.43843 Z M 551.81732,510.56017 c 0.50037,-0.52906 0.90977,-25.55939 0.90977,-55.62293 0,-43.31151 -0.29502,-54.97245 -1.42091,-56.16097 -2.08204,-2.19788 -103.2826,-2.19886 -105.36602,-0.001 -1.11011,1.17109 -1.4979,12.27716 -1.77292,50.77591 -0.19361,27.10232 -0.0388,51.97287 0.3439,55.26789 0.65881,5.67145 0.8816,6.01689 4.17755,6.47776 6.52612,0.91252 102.21532,0.22901 103.12863,-0.73664 z"
   id="path4882" /><path
   style="fill:#0000ff;stroke:#ff00ff;stroke-width:1.4175"
   d="m 441.51348,348.13896 c -1.7747,-1.09135 -1.91276,-4.7539 -1.91276,-50.74082 v -49.56457 l 5.73829,-3.6e-4 5.73829,-3.6e-4 -0.2855,49.33377 c -0.25836,44.64302 -0.4601,49.47093 -2.12167,50.77628 -2.19812,1.72684 -4.56204,1.7916 -7.15665,0.19606 z"
   id="path4884" /><path
   style="fill:#0000ff;stroke:#ff00ff;stroke-width:1.4175"
   d="m 548.58451,347.9429 c -1.65039,-1.30245 -1.85639,-6.23245 -2.12167,-50.7764 l -0.2938,-49.33389 5.7383,4.9e-4 5.73829,4.7e-4 v 49.58131 c 0,47.83852 -0.0743,49.6233 -2.11416,50.77591 -2.79002,1.5765 -4.72255,1.50753 -6.94696,-0.24789 z"
   id="path4886" /><path
   style="fill:#0000ff;stroke:#ff00ff;stroke-width:1.4175"
   d="M 579.5058,582.49297 V 567.491 h 12.02309 12.0231 v 15.00197 15.00197 h -12.0231 -12.02309 z"
   id="path4888" /><path
   style="fill:#0000ff;stroke:#ff00ff;stroke-width:1.4175"
   d="m 585.24409,548.17423 c 3.45664,-0.22901 9.11296,-0.22901 12.5696,0 3.45664,0.22902 0.62848,0.41639 -6.2848,0.41639 -6.91328,0 -9.74144,-0.18737 -6.2848,-0.41639 z"
   id="path4890" /><path
   style="fill:#0000ff;stroke:#ff00ff;stroke-width:1.4175"
   d="m 579.5058,552.77752 v -3.1735 h 12.02309 12.0231 v 3.1735 3.17349 h -12.0231 -12.02309 z"
   id="path4892" /><path
   style="fill:#0000ff;stroke:#ff00ff;stroke-width:1.4175"
   d="M 393.69436,582.49297 V 567.491 h 12.02309 12.0231 v 15.00197 15.00197 h -12.0231 -12.02309 z"
   id="path4894" /><path
   style="fill:#0000ff;stroke:#ff00ff;stroke-width:1.4175"
   d="m 393.69436,552.48902 v -3.462 h 12.02309 12.0231 v 3.462 3.46199 h -12.0231 -12.02309 z"
   id="path4896" /><path
   d="m 476.52495,660.61452 c 0.67472,1.39872 0.71969,2.68093 0.26985,16.14386 l -0.49481,14.62849 1.07958,1.3405 c 0.62975,0.75762 1.07959,1.92327 1.07959,2.91405 0,1.86496 -1.12456,4.25451 -1.93425,4.25451 -0.40487,0 -1.16954,17.1346 -3.05881,69.17954 l -2.51902,69.23788 1.21451,2.91405 c 3.14877,7.45997 4.27336,14.91991 3.91348,26.1682 -0.26986,8.97526 -0.89964,12.82179 -3.95845,24.53627 -4.40829,16.95978 -7.10725,35.84283 -7.87193,55.19215 -0.40486,10.78197 -0.0899,10.37402 -8.18683,10.37402 -3.37368,0 -6.38752,-0.23304 -6.65741,-0.46628 -1.16954,-0.99074 -1.52939,-3.61341 -2.42903,-17.89226 -0.53979,-8.33416 -1.12456,-15.61931 -1.25953,-16.20212 -0.22488,-0.69936 -2.0242,2.50607 -6.83735,12.23903 -3.55359,7.34338 -7.37711,14.39538 -8.45669,15.79414 -1.07959,1.39876 -3.28373,3.38029 -4.94809,4.37107 l -3.01383,1.865 -31.84758,0.17478 -31.80265,0.11652 -0.89964,-1.865 c -1.70933,-3.61341 -2.47404,-7.5765 -2.42907,-12.41385 0,-3.84653 0.22489,-5.24529 1.25953,-7.98448 1.97923,-5.36185 4.3183,-7.57653 18.30788,-17.13464 14.0795,-9.61636 17.00338,-12.35558 19.02758,-17.89226 1.12456,-3.20547 9.4913,-39.74765 11.3356,-49.65543 0.58477,-3.20547 1.39445,-9.09182 1.79928,-13.11321 0.67476,-6.99374 0.67476,-9.90779 -0.76467,-71.86051 l -1.52943,-64.63365 -1.21451,-1.69014 c -1.61938,-2.15639 -1.66435,-4.72079 -0.13493,-6.70232 l 1.12456,-1.39884 -0.31483,-14.86165 c -0.26986,-13.81258 -0.22489,-14.91992 0.53979,-16.02726 0.80969,-1.1656 1.34948,-1.1656 35.80607,-1.1656 h 35.04136 z m -65.40454,13.46289 c 0.1799,3.38033 0.31483,8.62562 0.31483,11.65623 v 5.42011 h 19.29748 19.2525 l 0.31483,-2.79749 c 0.53979,-5.47841 3.50865,-8.8587 7.69202,-8.8587 4.0484,0 6.92731,3.49685 7.647,9.15012 0.31484,2.44781 0.35982,2.50607 2.02424,2.50607 h 1.70933 l 0.26986,-8.04274 c 0.13493,-4.37111 0.40483,-9.6164 0.49482,-11.65623 l 0.26986,-3.6134 h -29.77845 -29.77841 z m 46.10702,14.74513 c -0.09,0.2913 -0.09,3.32203 0,6.70232 0.13493,4.83731 0.26986,6.11947 0.80969,6.11947 0.49482,0 0.62978,-1.22386 0.62978,-6.29433 0,-3.49685 -0.13493,-6.52746 -0.31483,-6.70232 -0.40486,-0.5828 -0.94466,-0.52454 -1.12456,0.17478 z m 8.18684,14.39538 c -0.98963,5.30359 -5.21798,8.68388 -9.44633,7.45997 -2.15917,-0.64106 -4.76814,-4.19621 -5.39792,-7.45997 l -0.53975,-2.73919 h -19.07259 -19.0726 v 2.73919 c 0,1.57362 0.62979,27.9749 1.34948,58.74729 0.71974,30.77239 1.34948,59.2718 1.34948,63.35145 0,7.45998 -0.80968,17.60088 -2.06917,25.35224 -0.85467,5.53671 -10.70586,49.36405 -11.78544,52.68604 -1.25949,3.73001 -4.76814,9.49984 -7.1972,11.77279 -1.16954,1.10734 -7.60203,5.76983 -14.25944,10.31572 -6.70239,4.54593 -12.82001,8.917 -13.6297,9.73296 -1.79928,1.74841 -2.78891,3.61341 -3.23875,6.29434 l -0.35981,2.03982 h 32.25245 32.20747 l 9.62626,-19.5824 c 10.79581,-21.85539 11.29059,-22.55476 14.21447,-19.29103 1.21451,1.28221 1.21451,1.45703 2.51902,19.93213 0.71973,10.25742 1.3045,18.70818 1.3045,18.76648 0,0.11652 0.67472,0.17478 1.52939,0.17478 1.70932,0 2.02423,-0.81592 2.06921,-4.95387 0.045,-3.90483 1.66435,-18.82478 2.92384,-26.45958 1.25953,-7.75136 3.41866,-17.7757 5.84773,-27.21724 2.29409,-8.917 3.05881,-15.09478 2.78891,-22.67132 -0.26986,-7.45997 -1.30447,-12.23902 -3.68855,-17.30946 l -1.66436,-3.43858 2.51902,-69.76238 c 1.39446,-38.34893 2.51902,-70.11207 2.51902,-70.52005 0,-0.40794 -0.58477,-0.69936 -1.52939,-0.69936 -1.43947,0 -1.52942,0.17478 -2.06921,2.73919 z"
   id="path5239-2"
   style="fill:#000000;stroke:none;stroke-width:0.137003" /><path
   style="fill:#ffff00;stroke:#ff00ff;stroke-width:1.4175"
   d="m 362.86322,942.08751 c 0,-3.24215 3.35302,-6.42845 17.03815,-16.19101 15.53434,-11.08167 19.06245,-15.03194 21.70487,-24.30196 3.53968,-12.41777 11.58854,-50.99874 12.60203,-60.40596 1.0281,-9.54281 0.12065,-82.61206 -1.56571,-126.07427 l -0.54851,-14.13647 h 18.58547 18.58547 l 1.14203,3.17137 c 1.71496,4.76238 4.27331,7.21461 7.52681,7.21461 3.16242,0 7.21899,-3.83347 7.83632,-7.40536 0.2103,-1.21681 0.92439,-2.40288 1.58686,-2.63573 0.82796,-0.29102 1.07632,2.20431 0.79449,7.98236 -0.2255,4.62314 -1.39012,36.23344 -2.58805,70.24511 l -2.17806,61.8394 2.31625,5.52845 c 4.27313,10.19913 4.0444,20.2831 -0.98247,43.31544 -4.34395,19.9033 -5.98873,29.97595 -7.39619,45.29444 -0.39363,4.28422 -1.09295,7.78948 -1.55404,7.78948 -0.84959,0 -1.53954,-6.02144 -2.84292,-24.81098 -0.84475,-12.1781 -1.83888,-15.57896 -4.55399,-15.57896 -2.15907,0 -5.47905,5.62099 -16.18792,27.4074 l -6.38138,12.98254 h -31.46976 c -21.54533,0 -31.46975,-0.3879 -31.46975,-1.2299 z"
   id="path5273" /><path
   style="fill:#ff0000;stroke:#ff00ff;stroke-width:1.4175"
   d="m 411.50209,679.62887 v -10.96298 h 29.00575 29.00574 l -0.31427,10.58114 c -0.32209,10.84434 -2.11238,14.83507 -3.46111,7.71513 -0.99137,-5.23344 -3.6557,-7.91028 -7.87332,-7.91028 -4.11868,0 -8.10749,4.33473 -8.10749,8.81061 v 2.72937 h -19.12765 -19.12765 z"
   id="path5346" /><path
   style="fill:#1f241c;stroke:#ff00ff;stroke-width:1.4175"
   d="m 412.5951,679.62887 v -9.80898 h 27.87172 27.87171 l -0.0768,6.0585 c -0.0732,5.7764 -1.85018,13.38287 -2.03237,8.69993 -0.12174,-3.12873 -4.52088,-6.68044 -8.2744,-6.68044 -4.15499,0 -8.05354,3.56723 -8.92474,8.16627 l -0.63908,3.37371 h -17.89801 -17.89802 z"
   id="path5419" /><path
   style="fill:#1f241c;stroke:#ff00ff;stroke-width:1.4175"
   d="m 366.89167,941.19113 -2.52961,-0.76165 3.07611,-2.98665 c 1.69186,-1.64272 7.25686,-6.04529 12.36668,-9.78367 11.94931,-8.74213 18.23319,-14.87157 20.89611,-20.38256 2.10173,-4.34962 7.14047,-25.15925 12.09029,-49.93205 2.34502,-11.7363 2.53637,-15.43642 2.53637,-49.04491 0,-19.99301 -0.38228,-52.05973 -0.84952,-71.25936 l -0.84952,-34.90845 h 17.44424 c 16.23425,0 17.49039,0.1535 18.10946,2.21283 2.52592,8.40255 9.3776,10.597 14.89586,4.77084 l 3.2225,-3.40232 -0.6722,13.49979 c -0.36972,7.4249 -1.53229,37.90686 -2.5835,67.73771 l -1.91129,54.2379 2.55594,7.23884 c 3.59958,10.19458 3.28549,17.70215 -1.84624,44.13089 -2.4212,12.46932 -5.02411,27.8228 -5.78425,34.11875 l -1.38207,11.4474 -1.2975,-15.89844 c -1.38123,-16.92413 -2.36423,-20.45255 -5.69798,-20.45255 -2.95637,0 -6.33883,5.15979 -15.50812,23.657 l -8.00873,16.15595 -27.87172,0.18319 c -15.32944,0.1003 -29.01003,-0.15964 -30.40131,-0.57848 z"
   id="path5421" /><path
   d="m 527.67096,660.61451 c -0.67474,1.39873 -0.71972,2.68093 -0.2699,16.14386 l 0.49481,14.6285 -1.07958,1.3405 c -0.62975,0.75762 -1.07958,1.92326 -1.07958,2.91405 0,1.86496 1.12457,4.25451 1.93425,4.25451 0.40484,0 1.16954,17.1346 3.05881,69.17954 l 2.51902,69.23788 -1.21453,2.91404 c -3.14877,7.45998 -4.27334,14.91992 -3.91348,26.1682 0.2699,8.97526 0.89965,12.82179 3.95846,24.53628 4.40829,16.95978 7.10724,35.84282 7.87194,55.19215 0.40484,10.78196 0.0899,10.37402 8.18681,10.37402 3.37369,0 6.38752,-0.23304 6.65741,-0.46628 1.16955,-0.99074 1.52941,-3.61341 2.42906,-17.89226 0.53979,-8.33416 1.12456,-15.61932 1.25951,-16.20212 0.22492,-0.69936 2.02421,2.50607 6.83734,12.23903 3.55361,7.34338 7.37713,14.39537 8.4567,15.79414 1.07958,1.39876 3.28373,3.38028 4.94808,4.37107 l 3.01383,1.865 31.84761,0.17478 31.80261,0.11652 0.89966,-1.865 c 1.70933,-3.61341 2.47403,-7.5765 2.42905,-12.41385 0,-3.84653 -0.22492,-5.24529 -1.25951,-7.98448 -1.97923,-5.36185 -4.31832,-7.57654 -18.30788,-17.13464 -14.07951,-9.61636 -17.00338,-12.35559 -19.02759,-17.89226 -1.12456,-3.20547 -9.4913,-39.74765 -11.33559,-49.65544 -0.58477,-3.20546 -1.39445,-9.09182 -1.79929,-13.11321 -0.67475,-6.99373 -0.67475,-9.90778 0.7647,-71.8605 l 1.5294,-64.63365 1.21453,-1.69015 c 1.61937,-2.15638 1.66435,-4.72079 0.13497,-6.70231 l -1.12457,-1.39884 0.31487,-14.86166 c 0.2699,-13.81257 0.22492,-14.91991 -0.53978,-16.02726 -0.80969,-1.1656 -1.34948,-1.1656 -35.80607,-1.1656 h -35.04136 z m 65.40455,13.4629 c -0.17995,3.38032 -0.31488,8.62562 -0.31488,11.65622 v 5.42012 h -19.29748 -19.25251 l -0.31487,-2.79749 c -0.53979,-5.47841 -3.50864,-8.8587 -7.69201,-8.8587 -4.04842,0 -6.9273,3.49685 -7.64702,9.15012 -0.31488,2.44781 -0.35985,2.50607 -2.02421,2.50607 h -1.70934 l -0.2699,-8.04274 c -0.13496,-4.37111 -0.40484,-9.61641 -0.4948,-11.65623 l -0.2699,-3.61341 h 29.77841 29.77841 z m -46.10706,14.74513 c 0.09,0.2913 0.09,3.32203 0,6.70232 -0.13497,4.83731 -0.2699,6.11947 -0.80969,6.11947 -0.4948,0 -0.62975,-1.22386 -0.62975,-6.29434 0,-3.49684 0.13497,-6.52745 0.31487,-6.70231 0.40484,-0.5828 0.94463,-0.52454 1.12456,0.17478 z m -8.18681,14.39537 c 0.98961,5.3036 5.21796,8.68388 9.44632,7.45998 2.15916,-0.64106 4.76814,-4.19621 5.3979,-7.45998 l 0.53979,-2.73918 h 19.07258 19.07257 v 2.73918 c 0,1.57363 -0.62975,27.97491 -1.34947,58.7473 -0.71972,30.77239 -1.34948,59.2718 -1.34948,63.35145 0,7.45997 0.80969,17.60088 2.0692,25.35223 0.85467,5.53672 10.70583,49.36406 11.78541,52.68605 1.25951,3.73 4.76815,9.49984 7.1972,11.77278 1.16954,1.10734 7.60204,5.76984 14.25945,10.31573 6.70239,4.54593 12.82001,8.917 13.6297,9.73296 1.7993,1.7484 2.78891,3.61341 3.23874,6.29433 l 0.35985,2.03983 h -32.25245 -32.20747 l -9.62625,-19.58241 c -10.7958,-21.85539 -11.29061,-22.55475 -14.21447,-19.29102 -1.21453,1.2822 -1.21453,1.45702 -2.51902,19.93212 -0.71972,10.25743 -1.30449,18.70819 -1.30449,18.76649 0,0.11652 -0.67474,0.17478 -1.52941,0.17478 -1.70933,0 -2.02421,-0.81592 -2.06919,-4.95387 -0.045,-3.90483 -1.66435,-18.82479 -2.92386,-26.45958 -1.25951,-7.75136 -3.41867,-17.77571 -5.84773,-27.21725 -2.2941,-8.917 -3.05881,-15.09477 -2.78891,-22.67131 0.26989,-7.45998 1.30449,-12.23903 3.68856,-17.30946 l 1.66435,-3.43859 -2.51901,-69.76238 c -1.39446,-38.34893 -2.51903,-70.11206 -2.51903,-70.52004 0,-0.40794 0.58478,-0.69936 1.52941,-0.69936 1.43944,0 1.5294,0.17478 2.0692,2.73918 z"
   id="path5239"
   style="fill:#000000;stroke:none;stroke-width:0.137003" /><path
   style="fill:#ffff00;stroke:#ff00ff;stroke-width:1.4175"
   d="m 546.87287,935.52793 c -1.41439,-15.39398 -3.04823,-25.42006 -7.38106,-45.29445 -5.02466,-23.04767 -5.25729,-33.14838 -0.9976,-43.31545 l 2.31625,-5.52844 -2.17806,-61.8394 c -1.19793,-34.01166 -2.36148,-65.60431 -2.58567,-70.20588 -0.39936,-8.1972 0.56845,-10.92313 2.04857,-5.76999 1.19583,4.16335 4.99758,7.78948 8.16672,7.78948 3.25351,0 5.81185,-2.45222 7.52681,-7.21459 l 1.14203,-3.17138 h 18.59897 18.59897 l -0.56369,13.55948 c -1.64594,39.59295 -2.60939,117.03878 -1.57558,126.65126 1.01148,9.40491 9.05732,47.9774 12.60008,60.40597 2.64242,9.27002 6.17053,13.2203 21.70487,24.30197 13.68514,9.76255 17.03815,12.94885 17.03815,16.191 0,0.842 -9.92922,1.2299 -31.48618,1.2299 h -31.48618 l -8.59224,-17.40084 c -9.29751,-18.82903 -11.89297,-22.98909 -14.34294,-22.98909 -2.30995,0 -3.34335,3.87447 -4.15526,15.57896 -1.30337,18.78954 -1.99333,24.81097 -2.84292,24.81097 -0.46108,0 -1.1604,-3.50525 -1.55404,-7.78948 z"
   id="path5275" /><path
   style="fill:#1f241c;stroke:#ff00ff;stroke-width:1.4175"
   d="m 535.31081,684.98292 c 0,-3.08491 -0.31278,-8.01825 -0.69507,-10.96298 l -0.69507,-5.35405 29.38655,-0.002 29.38654,-0.002 -0.34826,10.96557 -0.34825,10.96556 h -18.46401 -18.46402 l -1.17226,-4.59637 c -2.54374,-9.97385 -13.74957,-9.10742 -15.70481,1.2143 -1.01686,5.368 -2.88134,3.92703 -2.88134,-2.22685 z"
   id="path5348" /><path
   style="fill:#1f241c;stroke:#ff00ff;stroke-width:1.4175"
   d="m 571.55696,926.70134 c -11.88188,-23.97583 -14.61005,-27.49386 -18.29992,-23.59807 -1.62123,1.71166 -3.6811,14.53203 -3.71547,23.12455 -0.0119,2.97735 -0.5135,5.73436 -1.11466,6.12659 -0.63361,0.41345 -1.093,-0.70696 -1.093,-2.66568 0,-4.69968 -2.71928,-20.91835 -6.71196,-40.03225 -4.35618,-20.85413 -4.66401,-33.20347 -1.04218,-41.81014 l 2.54013,-6.0362 -2.32455,-63.78067 c -1.2785,-35.07937 -2.31869,-65.4436 -2.31153,-67.47606 l 0.013,-3.69539 2.89213,2.82989 c 4.97813,4.87102 10.31428,3.65907 13.57177,-3.08243 l 2.16167,-4.47366 h 17.60807 17.60807 l -0.69769,5.48149 c -0.38373,3.01482 -1.00425,34.56224 -1.37895,70.10538 -0.67166,63.71304 -0.64694,64.80279 1.75434,77.31786 6.90119,35.96787 11.2584,52.10685 15.5529,57.60756 1.77386,2.27208 9.82947,9.08188 17.90134,15.13288 8.07188,6.051 14.67614,11.44318 14.67614,11.98248 0,1.97065 -5.45892,2.3727 -32.42278,2.38812 l -27.50424,0.0158 z"
   id="path5423" /><path
   d="m 507.35566,443.6904 c -1.76947,0.15692 -3.53894,0.49765 -5.32219,1.02669 -3.79172,1.12084 -7.79026,3.0711 -16.14123,7.88174 -3.38267,1.94578 -7.77646,4.55061 -7.71212,4.56855 0.0276,0.009 0.31253,-0.12105 0.63885,-0.29142 2.17392,-1.13429 6.54014,-3.2594 9.1185,-4.43853 6.43903,-2.94108 11.09939,-4.66269 14.10978,-5.21414 0.74456,-0.13451 1.89356,-0.16589 2.29801,-0.0673 0.57451,0.14346 0.8135,0.41246 0.76754,0.85183 -0.0322,0.30936 -0.16546,0.59629 -0.51476,1.10291 -0.64803,0.95047 -2.1877,2.41653 -3.43782,3.2863 l -0.40445,0.27797 2.23826,0.0134 2.23367,0.009 0.44581,-0.34522 c 1.83382,-1.43916 3.89283,-3.30872 4.93153,-4.47888 1.25472,-1.41226 1.87058,-2.5331 1.76487,-3.21457 -0.046,-0.29141 -0.24818,-0.56938 -0.51475,-0.71285 -0.48718,-0.25555 -0.62965,-0.27349 -2.40831,-0.28694 -0.89623,-0.004 -1.83841,0.009 -2.09119,0.0314 z"
   id="path11336"
   style="fill:#e6e6e6;stroke:none;stroke-width:0.137004" /><path
   d="m 526.26828,465.49746 v 7.33029 h 2.13715 2.13715 v -7.33029 -7.33029 h -2.13715 -2.13715 z"
   id="path11338"
   style="fill:#e6e6e6;stroke:none;stroke-width:0.137004" /><path
   d="m 480.24373,465.50194 c -1.3834,3.96329 -2.52781,7.23166 -2.54159,7.26305 -0.0184,0.0538 0.30793,0.0628 2.15093,0.0538 l 2.17392,-0.0134 0.25738,-1.00876 c 0.14247,-0.55594 0.27576,-1.06255 0.28955,-1.13429 l 0.0322,-0.12105 h 2.0728 2.06821 l 1.388,-0.74424 c 1.14441,-0.61422 1.68214,-0.91012 2.39453,-1.30914 0.19303,-0.1076 -0.95138,0.91012 -2.37155,2.11615 -0.37687,0.31383 -0.68021,0.58732 -0.68021,0.60077 0,0.0179 0.1103,0.38557 0.24359,0.81597 l 0.24818,0.78459 2.19231,0.0134 c 2.0774,0.009 2.1923,0.004 2.16932,-0.0673 -0.0138,-0.0448 -1.13062,-3.30872 -2.47726,-7.25408 l -2.45427,-7.17338 -2.3164,-0.0134 -2.32099,-0.009 z m 5.4325,-0.69043 c 0.38607,1.34052 0.71238,2.47929 0.72617,2.5331 l 0.0276,0.10311 h -1.47532 c -0.8089,0 -1.47533,-0.0134 -1.47533,-0.0359 -0.005,-0.0673 1.44775,-5.03033 1.47533,-5.03033 0.0138,0 0.3401,1.09394 0.72157,2.42998 z"
   id="path11340"
   style="fill:#e6e6e6;stroke:none;stroke-width:0.137004" /><path
   d="m 466.70386,460.2071 v 1.77092 h 1.76947 1.76947 v 5.42487 5.42486 h 1.79704 1.79704 l -0.0322,-5.42486 -0.0368,-5.42487 h 1.89356 1.88897 v -1.77092 -1.77093 h -5.42331 -5.4233 z"
   id="path11342"
   style="fill:#e6e6e6;stroke:none;stroke-width:0.137004" /><path
   d="m 494.6017,465.63196 v 7.19579 h 2.02225 2.02225 v -7.19579 -7.19579 h -2.02225 -2.02225 z"
   id="path11344"
   style="fill:#e6e6e6;stroke:none;stroke-width:0.137004" /><path
   d="m 501.44977,465.63196 v 7.19579 h 2.06821 2.06821 v -2.66759 -2.6676 h 1.53047 c 1.57644,0 1.89816,-0.0269 2.55539,-0.18382 1.13062,-0.27349 1.93033,-0.82494 2.55079,-1.75748 0.48718,-0.72182 0.65723,-1.24637 0.70319,-2.14304 0.0781,-1.55125 -0.37687,-2.7752 -1.37421,-3.69878 -0.74455,-0.69043 -1.65916,-1.08049 -2.8863,-1.22844 -0.23899,-0.0269 -1.71431,-0.0448 -3.80091,-0.0448 h -3.41484 z m 6.10352,-4.30402 c 0.5745,0.1345 0.89162,0.3766 1.13062,0.86977 0.13328,0.27348 0.14247,0.33177 0.13788,0.76665 -0.005,0.60526 -0.11031,0.89667 -0.45041,1.23293 -0.39066,0.39005 -0.90542,0.51558 -2.12336,0.51558 h -0.66183 v -1.72609 -1.72609 h 0.84107 c 0.5745,0 0.9284,0.0224 1.12603,0.0673 z"
   id="path11346"
   style="fill:#e6e6e6;stroke:none;stroke-width:0.137004" /><path
   d="m 515.00803,465.6768 v 7.15095 h 4.41218 4.41218 v -1.59159 -1.59159 h -2.75761 -2.75762 v -1.45709 -1.4571 h 2.4359 2.43589 v -1.41225 -1.41226 h -2.43589 -2.4359 v -1.21051 -1.21051 h 2.64272 2.64271 v -1.47951 -1.4795 h -4.29728 -4.29728 z"
   id="path11348"
   style="fill:#e6e6e6;stroke:none;stroke-width:0.137004" /><path
   d="m 489.72992,479.28379 v 1.56918 h 1.21795 1.21794 v 4.75236 4.75236 h 1.58563 1.58562 v -4.75236 -4.75236 h 1.12603 1.12602 v -1.56918 -1.56917 h -3.92959 -3.9296 z"
   id="path11350"
   style="fill:#e6e6e6;stroke:none;stroke-width:0.137004" /><path
   d="m 499.38156,484.03615 v 6.32154 h 3.37808 3.37807 v -1.38984 -1.38984 h -2.11417 -2.11417 v -1.30018 -1.30017 h 1.90735 1.90735 v -1.30017 -1.30018 h -1.90735 -1.90735 v -0.9415 -0.94151 h 2.11417 2.11417 v -1.38984 -1.38984 h -3.37807 -3.37808 z"
   id="path11352"
   style="fill:#e6e6e6;stroke:none;stroke-width:0.137004" /><path
   d="m 513.37644,477.78635 c -2.63811,0.39902 -4.92233,2.19685 -5.64391,4.43853 -0.19303,0.5918 -0.27576,1.1836 -0.27576,1.94578 0,1.43915 0.37228,2.56896 1.19956,3.64048 0.99274,1.28673 2.61973,2.28203 4.32026,2.6407 0.64344,0.1345 1.99008,0.17037 2.55998,0.0673 0.73996,-0.13898 1.75109,-0.53352 2.12796,-0.8339 l 0.10111,-0.0807 -0.009,-1.94578 -0.0138,-1.9413 -0.16086,0.21969 c -0.5791,0.78459 -0.69859,0.92357 -0.93299,1.04911 -0.56531,0.31383 -1.20875,0.46626 -1.9671,0.46626 -1.66376,-0.004 -3.03337,-0.96392 -3.44701,-2.40756 -0.0827,-0.28245 -0.10111,-0.47075 -0.10111,-0.89667 0.005,-0.96841 0.26656,-1.61401 0.91001,-2.24616 0.43202,-0.42144 0.85026,-0.67251 1.45234,-0.87874 0.41824,-0.14347 0.45501,-0.14795 1.19037,-0.14795 0.85945,0 1.09845,0.0448 1.7327,0.33625 0.42743,0.19278 0.53773,0.2959 0.96057,0.88322 0.16086,0.22865 0.31712,0.42592 0.3401,0.43937 0.0322,0.0179 0.046,-0.68147 0.046,-2.00855 v -2.03544 l -0.39985,-0.18382 c -0.52395,-0.23313 -1.16739,-0.4304 -1.70972,-0.52007 -0.53774,-0.0897 -1.69593,-0.0897 -2.27963,0 z"
   id="path11354"
   style="fill:#e6e6e6;stroke:none;stroke-width:0.137004" /><path
   d="m 519.51213,484.01374 v 6.29912 h 1.60861 1.6086 v -2.62277 -2.62276 h 2.38993 2.38993 v 2.62276 2.62277 h 1.51669 1.51669 v -6.29912 -6.29912 h -1.51669 -1.51669 v 2.42101 2.42102 h -2.38993 -2.38993 v -2.42102 -2.42101 h -1.6086 -1.60861 z"
   id="path11356"
   style="fill:#e6e6e6;stroke:none;stroke-width:0.137004" /></g>
<g
   id="skeleton_1_"
   sodipodi:insensitive="true"
   style="opacity:0.25">
	<circle
   id="rightShoulder"
   cx="392.79999"
   cy="294.29999"
   r="8.1999998" />
	<circle
   id="rightElbow"
   cx="289.29999"
   cy="294.39999"
   r="8.1999998" />
	
		<circle
   id="rightWrist"
   transform="matrix(0.9951,-0.09853767,0.09853767,0.9951,-29.0274,13.8698)"
   cx="125.9"
   cy="300.79999"
   r="8.1999998" />
	<circle
   id="rightHip"
   cx="443.10001"
   cy="510.10001"
   r="8.1999998" />
	<circle
   id="rightKnee"
   cx="449.5"
   cy="670.29999"
   r="8.1999998" />
	<circle
   id="rightAnkle"
   cx="449.5"
   cy="878.29999"
   r="8.1999998" />
	<circle
   id="leftShoulder"
   cx="605.70001"
   cy="294.29999"
   r="8.1999998" />
	<circle
   id="leftElbow"
   cx="710.09998"
   cy="294"
   r="8.1999998" />
	<circle
   id="leftWrist"
   cx="873.5"
   cy="300.29999"
   r="8.1999998" />
	<circle
   id="leftHip"
   cx="559.5"
   cy="509.29999"
   r="8.1999998" />
	<circle
   id="leftKnee"
   cx="559.5"
   cy="670.29999"
   r="8.1999998" />
	<circle
   id="leftAnkle"
   cx="559.5"
   cy="878.29999"
   r="8.1999998" />
	<polygon
   style="fill:none;stroke:#000000;stroke-miterlimit:10"
   points="443,510.4 559.4,509.6 605.6,294.6 392.7,294.6 "
   id="polygon886" />
	<polyline
   style="fill:none;stroke:#000000;stroke-miterlimit:10"
   points="391.7,294.6 289,294.6 125.7,300.9  "
   id="polyline888" />
	<polyline
   style="fill:none;stroke:#000000;stroke-miterlimit:10"
   points="607.1,294.2 710.3,294.2 873.6,300.6  "
   id="polyline890" />
	<polyline
   style="fill:none;stroke:#000000;stroke-miterlimit:10"
   points="443,510.4 449.4,670.6 449.4,878.6  "
   id="polyline892" />
	<polyline
   style="fill:none;stroke:#000000;stroke-miterlimit:10"
   points="559.4,509.6 559.4,670.6 559.4,878.6  "
   id="polyline894" />
	<circle
   id="rightEye0"
   cx="468.60001"
   cy="160.2"
   r="0.80000001" />
	<circle
   id="rightBrow1"
   cx="466.39999"
   cy="148.3"
   r="0.80000001" />
	<circle
   id="rightBrow4"
   cx="489.70001"
   cy="151.3"
   r="0.80000001" />
	<circle
   id="nose1"
   cx="497.60001"
   cy="161.2"
   r="0.80000001" />
	<circle
   id="rightBrow3"
   cx="479.89999"
   cy="147.3"
   r="0.80000001" />
	<circle
   id="rightEye1"
   cx="473.79999"
   cy="156.5"
   r="0.80000001" />
	<circle
   id="rightBrow0"
   cx="462.39999"
   cy="152"
   r="0.80000001" />
	<circle
   id="rightBrow2"
   cx="472.60001"
   cy="147.3"
   r="0.80000001" />
	<circle
   id="rightEye5"
   cx="473.79999"
   cy="162.5"
   r="0.80000001" />
	<circle
   id="rightEye2"
   cx="480.10001"
   cy="156.5"
   r="0.80000001" />
	<circle
   id="rightEye3"
   cx="485.29999"
   cy="160.7"
   r="0.80000001" />
	<circle
   id="nose0"
   cx="497.60001"
   cy="155.39999"
   r="0.80000001" />
	<circle
   id="nose3"
   cx="497.60001"
   cy="173.8"
   r="0.80000001" />
	<circle
   id="rightNose0"
   cx="486.89999"
   cy="178.3"
   r="0.80000001" />
	<circle
   id="rightMouthCorner"
   cx="480.89999"
   cy="200.39999"
   r="0.80000001" />
	<circle
   id="rightNose1"
   cx="492.10001"
   cy="178.3"
   r="0.80000001" />
	<circle
   id="rightUpperLipTop0"
   cx="487.79999"
   cy="197"
   r="0.80000001" />
	<circle
   id="nose2"
   cx="497.60001"
   cy="166.7"
   r="0.80000001" />
	<circle
   id="nose4"
   cx="497.60001"
   cy="179.10001"
   r="0.80000001" />
	<circle
   id="upperLipTopMid"
   cx="498.39999"
   cy="196.8"
   r="0.80000001" />
	<circle
   id="rightUpperLipTop1"
   cx="494.29999"
   cy="195.89999"
   r="0.80000001" />
	<path
   id="rightMiddleLip"
   d="m 484.5,199.9 c 0.4,0 0.8,0.4 0.8,0.8 0,0.4 -0.4,0.8 -0.8,0.8 -0.4,0 -0.8,-0.4 -0.8,-0.8 0,-0.4 0.4,-0.8 0.8,-0.8 z" />
	<circle
   id="lowerLipBottomMid"
   cx="498.39999"
   cy="210"
   r="0.80000001" />
	<circle
   id="upperLipBottomMid"
   cx="498.39999"
   cy="200.39999"
   r="0.80000001" />
	<circle
   id="lowerLipTopMid"
   cx="498.39999"
   cy="203.5"
   r="0.80000001" />
	<circle
   id="rightUpperLipBottom1"
   cx="494.5"
   cy="199.89999"
   r="0.80000001" />
	<circle
   id="rightLowerLipTop0"
   cx="494.5"
   cy="202.8"
   r="0.80000001" />
	<circle
   id="rightLowerLipBottom1"
   cx="494.29999"
   cy="209.5"
   r="0.80000001" />
	<circle
   id="rightLowerLipBottom0"
   cx="487.29999"
   cy="206.7"
   r="0.80000001" />
	<circle
   id="rightEye4"
   cx="480.10001"
   cy="161.7"
   r="0.80000001" />
	<circle
   id="jawMid"
   cx="498.39999"
   cy="235.8"
   r="0.80000001" />
	<circle
   id="rightJaw7"
   cx="483.39999"
   cy="232.60001"
   r="0.80000001" />
	<circle
   id="rightJaw6"
   cx="473.39999"
   cy="225.89999"
   r="0.80000001" />
	<circle
   id="rightJaw5"
   cx="461.79999"
   cy="213.39999"
   r="0.80000001" />
	<circle
   id="rightJaw4"
   cx="455"
   cy="193.39999"
   r="0.80000001" />
	<circle
   id="rightJaw3"
   cx="454.20001"
   cy="171.7"
   r="0.80000001" />
	<circle
   id="rightJaw2"
   cx="454.20001"
   cy="162.2"
   r="0.80000001" />
	<circle
   id="rightJaw1"
   cx="455"
   cy="150.5"
   r="0.80000001" />
	<circle
   id="rightJaw0"
   cx="457.5"
   cy="141.2"
   r="0.80000001" />
	<circle
   id="topMid"
   cx="498.60001"
   cy="115.1"
   r="0.80000001" />
	<circle
   id="leftTop0"
   cx="518.29999"
   cy="117.6"
   r="0.80000001" />
	<circle
   id="leftTop1"
   cx="530.90002"
   cy="127.1"
   r="0.80000001" />
	<circle
   id="leftEye0"
   cx="528.20001"
   cy="160.2"
   r="0.80000001" />
	<circle
   id="leftBrow1"
   cx="530.09998"
   cy="148.7"
   r="0.80000001" />
	<circle
   id="leftBrow4"
   cx="506.5"
   cy="150.8"
   r="0.80000001" />
	<circle
   id="leftBrow3"
   cx="516.5"
   cy="147.60001"
   r="0.80000001" />
	<circle
   id="leftEye1"
   cx="523"
   cy="156.5"
   r="0.80000001" />
	<circle
   id="leftBrow0"
   cx="534.09998"
   cy="151.60001"
   r="0.80000001" />
	<circle
   id="leftBrow2"
   cx="523.79999"
   cy="147.2"
   r="0.80000001" />
	<circle
   id="leftEye5"
   cx="523"
   cy="162.5"
   r="0.80000001" />
	<circle
   id="leftEye2"
   cx="516.70001"
   cy="156.5"
   r="0.80000001" />
	<circle
   id="leftEye3"
   cx="511.5"
   cy="160.7"
   r="0.80000001" />
	<circle
   id="leftNose0"
   cx="508"
   cy="178.3"
   r="0.80000001" />
	<circle
   id="leftMouthCorner"
   cx="515.90002"
   cy="200.39999"
   r="0.80000001" />
	<circle
   id="leftNose1"
   cx="503.20001"
   cy="178.3"
   r="0.80000001" />
	<circle
   id="leftUpperLipTop0"
   cx="509"
   cy="197"
   r="0.80000001" />
	<circle
   id="leftUpperLipTop1"
   cx="502.60001"
   cy="195.89999"
   r="0.80000001" />
	<path
   id="leftMiddleLip"
   d="m 512.3,199.9 c 0.4,0 0.8,0.4 0.8,0.8 0,0.4 -0.4,0.8 -0.8,0.8 -0.4,0 -0.8,-0.4 -0.8,-0.8 0,-0.4 0.4,-0.8 0.8,-0.8 z" />
	<circle
   id="leftUpperLipBottom1"
   cx="502.39999"
   cy="199.89999"
   r="0.80000001" />
	<circle
   id="leftLowerLipTop0"
   cx="502.39999"
   cy="202.8"
   r="0.80000001" />
	<circle
   id="leftLowerLipBottom1"
   cx="502.60001"
   cy="209.5"
   r="0.80000001" />
	<circle
   id="leftLowerLipBottom0"
   cx="509.5"
   cy="206.7"
   r="0.80000001" />
	<circle
   id="leftEye4"
   cx="516.70001"
   cy="161.7"
   r="0.80000001" />
	<circle
   id="leftJaw7"
   cx="513.20001"
   cy="233"
   r="0.80000001" />
	<circle
   id="leftJaw6"
   cx="523.20001"
   cy="226.3"
   r="0.80000001" />
	<circle
   id="leftJaw5"
   cx="534.79999"
   cy="213.7"
   r="0.80000001" />
	<circle
   id="leftJaw4"
   cx="541.59998"
   cy="193.7"
   r="0.80000001" />
	<circle
   id="leftJaw3"
   cx="542.40002"
   cy="172.10001"
   r="0.80000001" />
	<circle
   id="leftJaw2"
   cx="542.40002"
   cy="162.5"
   r="0.80000001" />
	<circle
   id="leftJaw1"
   cx="541.59998"
   cy="150.8"
   r="0.80000001" />
	<circle
   id="leftJaw0"
   cx="539.09998"
   cy="141.60001"
   r="0.80000001" />
	<polyline
   style="fill:none;stroke:#000000;stroke-miterlimit:10"
   points="498.4,115.1 478.6,117.6 466.1,127.1 457.5,141.2    455,150.5 454.2,162.2 454.2,171.7 455,193.4 461.8,213.4 473.4,225.9 483.4,232.6 498.4,235.8 513.2,233 523.2,226.3 534.8,213.7    541.6,193.7 542.4,172.1 542.4,162.5 541.6,150.8 539.1,141.6 530.9,127.1 518.3,117.6 498.4,115.1  "
   id="polyline967" />
	<polyline
   style="fill:none;stroke:#000000;stroke-miterlimit:10"
   points="462.4,152 466.4,148.3 472.6,147.3 479.9,147.3    489.7,151.3  "
   id="polyline969" />
	<polygon
   style="fill:none;stroke:#000000;stroke-miterlimit:10"
   points="473.8,156.5 480.1,156.5 485.3,160.7 480.1,161.7 473.8,162.5 468.6,160.2 "
   id="polygon971" />
	<polyline
   style="fill:none;stroke:#000000;stroke-miterlimit:10"
   points="486.9,178.3 492.1,178.3 497.6,179.1 497.6,173.8    497.6,166.7 497.6,161.2 497.6,155.4  "
   id="polyline973" />
	<polyline
   style="fill:none;stroke:#000000;stroke-miterlimit:10"
   points="533.9,151.6 529.9,148.7 523.6,147.2 516.3,147.6    506.3,150.8  "
   id="polyline975" />
	<polygon
   style="fill:none;stroke:#000000;stroke-miterlimit:10"
   points="522.7,156.5 516.4,156.5 511.3,160.7 516.4,161.7 522.7,162.5 528,160.2 "
   id="polygon977" />
	<polyline
   style="fill:none;stroke:#000000;stroke-miterlimit:10"
   points="508,178.3 503,178.3 497.6,179.1  "
   id="polyline979" />
	<polygon
   style="fill:none;stroke:#000000;stroke-miterlimit:10"
   points="487.8,197 494.3,195.9 498.4,196.8 502.6,195.9 509,197 515.9,200.4 509.5,206.7 502.4,209.5 498.4,210 494.3,209.5 487.3,206.7 480.9,200.4 "
   id="polygon981" />
	<polyline
   style="fill:none;stroke:#000000;stroke-miterlimit:10"
   points="480.9,200.4 484.5,200.7 494.5,199.9 498.4,200.4    502.4,199.9 512.3,200.7 515.9,200.4  "
   id="polyline983" />
	<polyline
   style="fill:none;stroke:#000000;stroke-miterlimit:10"
   points="480.9,200.4 484.5,200.7 494.5,202.8 498.4,203.6    502.4,202.8 512.3,200.7 515.9,200.4  "
   id="polyline985" />
	<circle
   id="rightTop0"
   cx="478.70001"
   cy="117.6"
   r="0.80000001" />
	<circle
   id="rightTop1"
   cx="466.10001"
   cy="127.1"
   r="0.80000001" />
</g>
</svg>
