<?xml version="1.0" encoding="UTF-8" standalone="no"?>
<svg
   xmlns:dc="http://purl.org/dc/elements/1.1/"
   xmlns:cc="http://creativecommons.org/ns#"
   xmlns:rdf="http://www.w3.org/1999/02/22-rdf-syntax-ns#"
   xmlns:svg="http://www.w3.org/2000/svg"
   xmlns="http://www.w3.org/2000/svg"
   version="1.1"
   id="svg15182"
   viewBox="0 0 300 149.56481"
   height="149.5648"
   width="300">
  <defs
     id="defs15184">
    <clipPath
       id="clipPath13536"
       clipPathUnits="userSpaceOnUse">
      <path
         id="path13538"
         d="m 0,595.28 841.89,0 L 841.89,0 0,0 0,595.28 Z" />
    </clipPath>
  </defs>
  <metadata
     id="metadata15187">
    <rdf:RDF>
      <cc:Work
         rdf:about="">
        <dc:format>image/svg+xml</dc:format>
        <dc:type
           rdf:resource="http://purl.org/dc/dcmitype/StillImage" />
        <dc:title></dc:title>
      </cc:Work>
    </rdf:RDF>
  </metadata>
  <g
     transform="translate(-494.49059,-590.05462)"
     id="layer1">
    <g
       transform="matrix(3.1677796,0,0,-3.1677796,351.89799,2336.182)"
       id="g13532">
      <g
         clip-path="url(#clipPath13536)"
         id="g13534">
        <g
           transform="translate(104.2783,507.7432)"
           id="g13540">
          <path
             id="path13542"
             style="fill:#ee1d23;fill-opacity:1;fill-rule:nonzero;stroke:none"
             d="m 0,0 c -2.365,0 -4.309,1.937 -4.309,4.311 0,2.249 1.817,4.304 4.309,4.304 2.439,0 4.307,-1.998 4.307,-4.304 C 4.307,1.937 2.439,0 0,0 m 0,12.044 c -4.27,0 -7.73,-3.474 -7.73,-7.733 0,-4.273 3.46,-7.738 7.73,-7.738 4.273,0 7.738,3.465 7.738,7.738 0,4.259 -3.465,7.733 -7.738,7.733" />
        </g>
        <g
           transform="translate(93.7783,513.7432)"
           id="g13544">
          <path
             id="path13546"
             style="fill:#ee1d23;fill-opacity:1;fill-rule:nonzero;stroke:none"
             d="m 0,0 -3.572,0 c -1.168,0 -1.785,-0.801 -1.785,-1.655 0,-0.859 0.617,-1.658 1.785,-1.658 l 2.562,0 0,-0.933 c 0,-0.378 -0.166,-0.682 -0.478,-0.917 -0.739,-0.547 -1.594,-0.843 -2.533,-0.843 -2.399,0 -4.325,1.951 -4.325,4.317 0,2.418 1.959,4.304 4.295,4.304 1.031,0 1.91,-0.338 2.69,-0.903 C -0.436,1.035 0.588,1.301 1.107,2.02 1.615,2.715 1.6,3.731 0.68,4.439 c -1.303,1.006 -2.955,1.605 -4.723,1.605 -4.277,0 -7.74,-3.474 -7.74,-7.733 0,-4.273 3.463,-7.738 7.74,-7.738 2.029,0 3.803,0.782 5.127,1.954 0.562,0.498 1.035,1.262 1.035,2.337 l 0,3.243 C 2.119,-0.763 1.432,0 0,0" />
        </g>
        <g
           transform="translate(126.1006,518.0713)"
           id="g13548">
          <path
             id="path13550"
             style="fill:#ee1d23;fill-opacity:1;fill-rule:nonzero;stroke:none"
             d="m 0,0 c -0.207,0.864 -0.814,1.576 -1.816,1.576 -0.899,0 -1.555,-0.637 -1.84,-1.494 L -5.91,-6.825 -8.154,0.073 c -0.297,0.861 -0.95,1.489 -1.846,1.489 -0.996,0 -1.609,-0.706 -1.83,-1.571 l -2.625,-11.261 c -0.279,-1.226 0.301,-2.058 1.187,-2.272 0.885,-0.208 1.829,0.241 2.102,1.471 l 1.467,6.767 1.98,-6.292 c 0.303,-0.861 0.926,-1.414 1.809,-1.414 0.879,0 1.467,0.517 1.795,1.414 l 1.998,6.315 1.478,-6.79 c 0.278,-1.23 1.215,-1.679 2.112,-1.471 0.886,0.214 1.461,1.046 1.181,2.272 L 0,0 Z" />
        </g>
        <g
           transform="translate(59.0498,519.6475)"
           id="g13552">
          <path
             id="path13554"
             style="fill:#ee1d23;fill-opacity:1;fill-rule:nonzero;stroke:none"
             d="m 0,0 c -0.936,0 -1.762,-0.738 -1.762,-1.998 l 0,-11.154 c 0,-1.262 0.826,-2.01 1.762,-2.01 0.936,0 1.764,0.748 1.764,2.01 l 0,11.154 C 1.764,-0.738 0.936,0 0,0" />
        </g>
        <g
           transform="translate(77.6104,518.4209)"
           id="g13556">
          <path
             id="path13558"
             style="fill:#ee1d23;fill-opacity:1;fill-rule:nonzero;stroke:none"
             d="M 0,0 C -0.389,0.838 -1.014,1.219 -1.658,1.219 -2.303,1.217 -2.939,0.849 -3.328,0 l -4.707,-10.246 c -0.018,-0.033 -0.082,-0.148 -0.174,-0.148 -0.078,0 -0.166,0.05 -0.23,0.107 l -4.018,4.025 4.082,4.344 c 0.932,0.939 0.756,2.023 0.049,2.668 -0.699,0.641 -1.701,0.68 -2.545,-0.196 l -4.881,-5.298 c -0.406,-0.411 -0.689,-0.904 -0.689,-1.536 0,-0.663 0.316,-1.204 0.726,-1.593 l 5.233,-5.199 c 0.58,-0.529 1.384,-0.864 2.285,-0.864 1.377,0 2.619,0.808 3.138,1.922 l 3.383,7.537 3.631,-8.202 c 0.529,-1.147 1.604,-1.485 2.453,-1.098 0.852,0.39 1.289,1.32 0.77,2.464 L 0,0 Z" />
        </g>
        <g
           transform="translate(137.2295,507.8574)"
           id="g13560">
          <path
             id="path13562"
             style="fill:#ee1d23;fill-opacity:1;fill-rule:nonzero;stroke:none"
             d="m 0,0 -4.4,0 0,2.665 3.9,0 c 1.162,0 1.812,0.727 1.812,1.582 0,0.859 -0.65,1.588 -1.812,1.588 l -3.9,0 0,2.573 4.109,0 c 1.178,0 1.844,0.738 1.844,1.619 0,0.876 -0.666,1.62 -1.844,1.62 l -5.74,0 c -0.16,0 -0.297,-0.021 -0.434,-0.048 -0.219,-0.038 -0.437,-0.121 -0.631,-0.252 -0.408,-0.266 -0.66,-0.678 -0.726,-1.092 -0.051,-0.19 -0.082,-0.398 -0.082,-0.627 l 0,-10.844 c 0,-0.241 0.039,-0.465 0.093,-0.666 0.016,-0.041 0.022,-0.066 0.034,-0.102 0.009,-0.033 0.021,-0.068 0.033,-0.101 0.025,-0.1 0.074,-0.184 0.125,-0.271 0.015,-0.025 0.027,-0.041 0.037,-0.064 0.033,-0.044 0.072,-0.098 0.117,-0.142 0.262,-0.349 0.639,-0.569 1.067,-0.632 0.136,-0.03 0.267,-0.04 0.416,-0.04 l 5.982,0 c 1.182,0 1.844,0.741 1.844,1.618 C 1.844,-0.744 1.182,0 0,0" />
        </g>
        <g
           transform="translate(47.8877,511.5)"
           id="g13564">
          <path
             id="path13566"
             style="fill:#f7931d;fill-opacity:1;fill-rule:nonzero;stroke:none"
             d="M 0,0 C 1.342,0.21 2.432,1.565 2.252,3.237 2.055,4.958 0.428,6.27 -0.684,6.024 -1.822,5.772 -1.99,4.749 -1.898,4.078 -1.756,3.101 -2.621,2.714 -2.555,1.64 -2.467,0.273 -1.355,-0.218 0,0" />
        </g>
        <g
           transform="translate(58.4189,521.3877)"
           id="g13568">
          <path
             id="path13570"
             style="fill:#23b24b;fill-opacity:1;fill-rule:nonzero;stroke:none"
             d="M 0,0 C 2.35,-0.536 4.687,0.926 5.223,3.264 5.754,5.564 5.191,8.918 2.826,9.459 0.461,10.004 -2.555,8.172 -3.186,5.186 -3.689,2.839 -2.336,0.537 0,0" />
        </g>
        <g
           transform="translate(72.3779,535.3896)"
           id="g13572">
          <path
             id="path13574"
             style="fill:#ee1d23;fill-opacity:1;fill-rule:nonzero;stroke:none"
             d="m 0,0 c 3.365,-3.061 9.041,-2.688 12.029,0.609 2.35,2.587 2.465,4.752 1.703,6.735 -0.695,1.808 -2.457,2.158 -3.47,2.951 -2.008,1.587 -1.631,4.09 -3.887,4.943 -1.953,0.739 -4.619,0 -6.967,-2.584 C -3.803,9.113 -3.537,3.208 0,0" />
        </g>
        <g
           transform="translate(61.1846,523.8076)"
           id="g13576">
          <path
             id="path13578"
             style="fill:#ffffff;fill-opacity:1;fill-rule:evenodd;stroke:none"
             d="m 0,0 -2.803,0.012 c -0.017,0 -0.049,0 -0.049,0.087 l 0,0.054 c 0,0.818 0.006,1.001 0.006,1.023 l 0,0.028 0,0.025 1.987,-0.002 0.902,-0.007 0.078,0 c 0,-0.01 0,-0.033 0.006,-0.049 l 0,-0.023 0,-0.091 C 0.127,0.811 0.121,0.18 0.104,0.085 l 0,-0.041 C 0.104,0.027 0.098,0.006 0.098,0 L 0,0 Z m -0.477,2.736 0.575,0 c 0.033,0 0.039,-0.002 0.045,-0.002 l 0,-0.013 c 0.003,-0.044 0.003,-0.319 0.003,-0.59 0,-0.276 0,-0.549 -0.003,-0.61 C 0.143,1.51 0.137,1.503 0.137,1.503 0.021,1.494 -1.523,1.51 -2.348,1.516 l -0.519,0 0,0.005 c 0,0.044 -0.008,0.204 -0.008,0.394 0,0.349 0.008,0.789 0.008,0.808 l 0,0.011 c 0.113,0.002 1.588,0.002 2.39,0.002 m -2.343,1.523 2.863,0 c 0.061,0 0.078,0 0.078,-0.072 0.01,-0.083 0.022,-0.739 0.022,-1.027 0,-0.056 0,-0.096 -0.006,-0.118 l 0,-0.016 0,-0.018 c -0.006,0 -0.039,-0.003 -0.039,-0.003 -0.164,0.003 -2.918,0.021 -2.95,0.021 -0.011,0 -0.015,0 -0.015,0.016 0,0.017 0.021,1.036 0.025,1.21 l 0,0.007 0.022,0 z M -2.004,5.77 -2.047,5.741 C -2.059,5.73 -2.059,5.72 -2.059,5.709 -2.059,5.687 -2.047,5.667 -2.037,5.638 -2.025,5.629 -2.025,5.6 -2.025,5.58 l 0,-0.023 C -2.014,5.496 -2.014,5.435 -2.014,5.379 -2.014,5.041 -2.08,4.751 -2.107,4.625 -2.125,4.553 -2.15,4.543 -2.234,4.543 l -0.098,0 -0.34,0 -0.004,0 c -0.072,0 -0.115,0.005 -0.209,0.06 -0.146,0.074 -0.51,0.233 -0.683,0.26 -0.034,0.002 -0.073,-0.01 -0.1,-0.035 C -3.689,4.806 -3.701,4.773 -3.689,4.74 l 0,-0.027 c 0.021,-0.084 0.06,-0.302 0.082,-0.553 0.005,-0.147 0.011,-0.789 0.011,-1.349 l 0,-0.93 c 0.016,-0.371 -0.011,-1.942 -0.066,-2.338 -0.006,-0.076 0.017,-0.236 0.076,-0.314 0.051,-0.067 0.139,-0.104 0.225,-0.104 0.209,0.002 0.384,0.131 0.476,0.246 0.043,0.065 0.065,0.195 0.071,0.317 l 0,0.027 c 0,0 0.005,0 0.005,0.012 l 0.012,0 0.006,0 c 0.07,0.005 2.801,-0.014 2.834,-0.02 l 0.006,0 c 0,-0.006 0.012,-0.011 0.012,-0.011 0,-0.008 0,-0.057 0.003,-0.1 0,-0.059 0.008,-0.135 0.018,-0.193 0.022,-0.131 0.141,-0.192 0.24,-0.18 0.104,0.01 0.203,0.022 0.364,0.084 0.179,0.066 0.259,0.23 0.25,0.517 -0.012,0.223 -0.077,2.989 -0.077,3.153 0,0.159 0.028,0.679 0.034,0.814 C 0.908,3.918 0.969,3.996 1.078,4.094 1.127,4.135 1.154,4.193 1.154,4.252 1.162,4.329 1.123,4.408 1.068,4.461 1.008,4.521 0.793,4.641 0.58,4.764 L 0.465,4.828 C 0.404,4.865 0.344,4.865 0.307,4.818 L 0.264,4.759 0.164,4.625 C 0.109,4.559 0.061,4.532 -0.012,4.527 c -0.049,0 -1.039,0.01 -1.511,0.016 l -0.266,0 c 0,0 -0.006,0.005 -0.012,0.008 0.016,0.022 0.328,0.446 0.44,0.54 0.082,0.069 0.172,0.125 0.232,0.147 0.117,0.044 0.145,0.109 0.154,0.176 0.006,0 0.006,0.004 0.006,0.016 0,0.052 -0.064,0.131 -0.17,0.166 -0.076,0.022 -0.345,0.091 -0.509,0.129 L -1.74,5.752 C -1.85,5.779 -1.904,5.783 -2.004,5.77" />
        </g>
        <g
           transform="translate(66.6201,529.5547)"
           id="g13580">
          <path
             id="path13582"
             style="fill:#ee1d23;fill-opacity:1;fill-rule:evenodd;stroke:none"
             d="m 0,0 c -0.021,-0.011 -0.055,-0.044 -0.055,-0.109 0,-0.042 -0.011,-0.132 -0.039,-0.251 l -0.004,-0.029 c -0.095,-0.405 -0.625,-1.708 -1.341,-2.409 -0.073,-0.064 -0.094,-0.119 -0.067,-0.146 0.027,-0.034 0.082,-0.022 0.158,0.027 0.504,0.306 1.162,0.949 1.434,1.396 0.041,0.065 0.045,0.073 0.121,0.073 0.1,0.003 0.842,0.003 0.902,0 0.018,0 0.051,-0.008 0.055,-0.014 0,0 0.008,-0.01 0.008,-0.016 0,-0.01 -0.008,-0.025 -0.008,-0.043 -0.004,-0.011 -0.158,-0.53 -0.35,-0.91 l 0,0.006 c -0.043,0.176 -0.103,0.301 -0.31,0.432 -0.115,0.068 -0.395,0.148 -0.516,0.154 -0.049,0.006 -0.103,0 -0.119,-0.039 -0.006,-0.016 -0.012,-0.047 0.022,-0.082 0.054,-0.064 0.207,-0.328 0.3,-0.492 L 0.24,-2.557 c 0.088,-0.141 0.203,-0.202 0.346,-0.176 0.031,0.007 0.049,0.017 0.076,0.032 C 0.623,-2.759 0.568,-2.847 0.568,-2.847 0.437,-3.054 0.289,-3.298 0.098,-3.53 -0.283,-3.991 -0.75,-4.409 -1.217,-4.702 c -0.015,-0.014 -0.07,-0.05 -0.07,-0.088 0,-0.005 0.006,-0.01 0.006,-0.017 0.006,-0.018 0.021,-0.04 0.076,-0.029 l 0.06,0.011 c 1.327,0.468 2.211,1.269 2.797,2.54 0.01,0.044 0.028,0.044 0.067,0.044 l 0.152,0 0.75,-0.008 c 0.016,0 0.027,-0.004 0.033,-0.006 C 2.664,-2.267 2.664,-2.28 2.66,-2.299 2.551,-2.981 2.375,-3.372 2.215,-3.663 2.02,-4.038 1.51,-4.505 0.973,-4.809 0.959,-4.819 0.928,-4.872 0.941,-4.903 0.951,-4.921 0.969,-4.937 1.006,-4.932 l 0.082,0.023 0.099,0.021 c 0.629,0.17 0.952,0.369 1.397,0.857 0.34,0.38 0.574,0.868 0.705,1.483 0.004,0.024 0.01,0.035 0.018,0.047 0,-0.006 0,-0.012 0.004,-0.023 0.142,-0.47 0.279,-0.862 0.498,-1.219 0.13,-0.231 0.548,-0.707 0.822,-0.92 0.174,-0.127 0.24,-0.181 0.338,-0.094 0.176,0.131 0.652,0.395 0.859,0.457 0.055,0.018 0.076,0.047 0.076,0.08 0,0.026 -0.015,0.066 -0.103,0.082 L 5.703,-4.11 C 5.555,-4.077 5.363,-4.038 5.232,-3.979 4.625,-3.7 4.027,-3.216 3.695,-2.71 l -0.017,0.022 c -0.104,0.154 -0.192,0.289 -0.213,0.421 0,0 -0.006,0.012 -0.006,0.018 l 0.006,0 1.746,0 0.328,0 c 0.109,0 0.135,0.051 0.158,0.092 0.028,0.054 0.022,0.095 -0.039,0.159 C 5.523,-1.839 5.271,-1.647 5.156,-1.561 5.074,-1.503 4.98,-1.438 4.871,-1.577 L 4.758,-1.724 C 4.691,-1.812 4.631,-1.894 4.592,-1.933 L 4.559,-1.968 C 4.531,-1.991 4.525,-1.998 4.482,-1.998 l -0.877,0 -0.179,0 c -0.028,0 -0.045,0.005 -0.051,0.011 -0.01,0.011 -0.004,0.047 -0.004,0.08 0,0.084 0.094,1.102 0.104,1.189 0.023,0.105 0.105,0.155 0.164,0.197 l 0.017,0.017 c 0.028,0.023 0.055,0.066 0.055,0.115 0,0.06 -0.022,0.105 -0.072,0.126 -0.055,0.025 -0.268,0.073 -0.493,0.126 l -0.294,0.06 C 2.807,-0.066 2.77,-0.047 2.754,-0.038 2.691,-0.011 2.648,-0.032 2.627,-0.055 2.611,-0.066 2.584,-0.085 2.584,-0.109 2.584,-0.12 2.588,-0.132 2.588,-0.137 2.621,-0.19 2.67,-0.296 2.727,-0.515 2.742,-0.603 2.754,-0.769 2.754,-0.958 2.754,-1.37 2.715,-1.874 2.707,-1.925 2.703,-1.968 2.703,-1.976 2.697,-1.979 2.682,-1.979 2.26,-1.976 2.26,-1.976 L 1.955,-1.97 c -0.035,0 -0.066,0.002 -0.078,0.01 -0.018,0.004 -0.043,0.017 -0.051,0.034 l 0,0.011 c 0,0.01 0,0.026 0.008,0.045 0.021,0.045 0.08,0.182 0.131,0.238 0.015,0.02 0.055,0.043 0.094,0.067 0.07,0.041 0.152,0.082 0.152,0.152 0,0.074 -0.022,0.094 -0.055,0.119 L 2.139,-1.278 C 2.08,-1.22 1.691,-0.964 1.615,-0.919 1.51,-0.872 1.449,-0.931 1.391,-0.996 L 1.312,-1.101 1.27,-1.163 C 1.236,-1.204 1.232,-1.204 1.182,-1.204 1.105,-1.196 0.641,-1.196 0.443,-1.196 L 0.359,-1.199 c -0.009,0 -0.015,0.003 -0.015,0.003 l 0,0.002 c 0,0.004 0,0.02 0.023,0.049 l 0.076,0.132 0.125,0.213 c 0.034,0.05 0.182,0.127 0.274,0.17 0.054,0.017 0.086,0.055 0.086,0.105 l 0,0.01 c 0,0.05 -0.032,0.104 -0.096,0.147 -0.066,0.035 -0.246,0.127 -0.41,0.203 C 0.289,-0.099 0.164,-0.038 0.131,-0.017 0.082,0.014 0.037,0.02 0,0" />
        </g>
        <g
           transform="translate(70.4072,528.9355)"
           id="g13584">
          <path
             id="path13586"
             style="fill:#ee1d23;fill-opacity:1;fill-rule:evenodd;stroke:none"
             d="m 0,0 c -0.043,-0.005 -0.076,-0.021 -0.082,-0.046 -0.01,-0.027 0,-0.053 0.016,-0.068 0.209,-0.161 0.445,-0.603 0.509,-0.762 0.032,-0.092 0.119,-0.152 0.213,-0.174 0.1,-0.017 0.198,0.022 0.28,0.098 0.078,0.076 0.115,0.208 0.111,0.34 0,0.092 -0.041,0.236 -0.182,0.361 C 0.592,-0.011 0.248,0.017 0,0" />
        </g>
        <g
           transform="translate(66.5146,524.7051)"
           id="g13588">
          <path
             id="path13590"
             style="fill:#ee1d23;fill-opacity:1;fill-rule:evenodd;stroke:none"
             d="m 0,0 c -0.047,-0.005 -0.059,-0.071 -0.059,-0.132 l 0,0.006 c -0.054,-0.32 -0.291,-0.592 -0.685,-0.818 -0.125,-0.072 -0.217,-0.184 -0.24,-0.299 -0.032,-0.158 0.039,-0.283 0.209,-0.377 0.14,-0.07 0.425,-0.049 0.58,0.094 0.14,0.142 0.295,0.287 0.365,0.466 0.066,0.163 0.094,0.354 0.076,0.589 -0.01,0.115 -0.047,0.24 -0.119,0.367 C 0.072,-0.022 0.039,0.011 0,0" />
        </g>
        <g
           transform="translate(67.6592,524.6064)"
           id="g13592">
          <path
             id="path13594"
             style="fill:#ee1d23;fill-opacity:1;fill-rule:evenodd;stroke:none"
             d="m 0,0 c -0.016,-0.014 -0.043,-0.042 -0.037,-0.115 0.047,-0.28 0.076,-0.588 -0.074,-0.93 -0.032,-0.09 -0.043,-0.318 0.056,-0.411 0.073,-0.065 0.176,-0.083 0.252,-0.085 0.192,-0.002 0.483,0.135 0.492,0.534 C 0.711,-0.569 0.246,-0.148 0.1,-0.021 0.066,0.012 0.027,0.012 0,0" />
        </g>
        <g
           transform="translate(80.1338,524.3389)"
           id="g13596">
          <path
             id="path13598"
             style="fill:#ee1d23;fill-opacity:1;fill-rule:nonzero;stroke:none"
             d="m 0,0 c -0.006,-0.012 -0.006,-0.014 -0.006,-0.023 0,-0.02 0.012,-0.049 0.043,-0.079 0.16,-0.133 0.391,-0.375 0.588,-0.651 l 0.137,-0.222 c 0.109,-0.177 0.234,-0.379 0.371,-0.498 0.094,-0.082 0.213,-0.109 0.346,-0.071 0.24,0.065 0.343,0.263 0.261,0.547 -0.066,0.263 -0.338,0.51 -0.547,0.645 C 0.887,-0.162 0.486,-0.02 0.115,0.031 0.094,0.034 0.021,0.043 0,0" />
        </g>
        <g
           transform="translate(112.0283,524.3389)"
           id="g13600">
          <path
             id="path13602"
             style="fill:#ee1d23;fill-opacity:1;fill-rule:nonzero;stroke:none"
             d="M 0,0 C -0.012,-0.027 0.006,-0.061 0.049,-0.102 0.197,-0.235 0.432,-0.477 0.623,-0.753 L 0.766,-0.975 C 0.881,-1.152 1,-1.354 1.139,-1.473 c 0.086,-0.082 0.205,-0.109 0.343,-0.071 0.241,0.065 0.34,0.263 0.264,0.547 -0.072,0.263 -0.34,0.51 -0.553,0.645 -0.3,0.19 -0.701,0.332 -1.074,0.383 C 0.092,0.034 0.021,0.043 0,0" />
        </g>
        <g
           transform="translate(90.4893,527.5566)"
           id="g13604">
          <path
             id="path13606"
             style="fill:#ee1d23;fill-opacity:1;fill-rule:nonzero;stroke:none"
             d="m 0,0 c -0.361,-0.093 -0.699,-0.401 -0.854,-0.647 -0.021,-0.02 -0.027,-0.043 -0.027,-0.06 0,-0.016 0.012,-0.032 0.022,-0.046 0.033,-0.029 0.06,-0.019 0.093,-0.008 0.246,0.102 0.629,0.198 0.87,0.131 C 0.316,-0.69 0.312,-0.707 0.301,-0.753 0.27,-0.897 0.109,-1.154 0.057,-1.235 0.027,-1.28 0.023,-1.321 0.039,-1.347 c 0.01,-0.01 0.039,-0.027 0.076,-0.015 0.061,0.015 0.133,0.051 0.225,0.097 l 0.088,0.044 c 0.086,0.044 0.207,0.056 0.34,0.067 l 0.046,0 0.106,0.01 c 0.06,0.012 0.168,0.055 0.24,0.206 0.045,0.095 0.065,0.177 0.061,0.279 -0.01,0.16 -0.088,0.325 -0.252,0.472 C 0.762,0.015 0.34,0.093 0,0" />
        </g>
        <g
           transform="translate(93.4775,528.4238)"
           id="g13608">
          <path
             id="path13610"
             style="fill:#ee1d23;fill-opacity:1;fill-rule:nonzero;stroke:none"
             d="m 0,0 c -0.004,-0.011 -0.01,-0.019 -0.01,-0.03 0,-0.016 0.006,-0.033 0.016,-0.043 l 0.06,-0.11 C 0.1,-0.227 0.131,-0.278 0.148,-0.331 0.182,-0.407 0.209,-0.567 0.225,-0.64 0.236,-0.702 0.236,-0.784 0.236,-0.872 0.236,-1.042 0.225,-1.257 0.203,-1.485 0.187,-1.774 0.16,-2.099 0.16,-2.409 l 0,-0.016 c 0,-1.185 0.738,-2.003 1.422,-2.258 0.127,-0.051 0.313,-0.009 0.428,0.094 0.115,0.11 0.154,0.285 0.086,0.41 l -0.032,0.055 c -0.082,0.158 -0.169,0.307 -0.13,0.514 0.013,0.132 0.162,0.603 0.24,0.863 l 0.039,0.152 c 0.01,0.037 0.031,0.124 -0.018,0.147 C 2.152,-2.427 2.102,-2.485 2.092,-2.509 2.059,-2.548 1.982,-2.673 1.879,-2.832 1.687,-3.122 1.434,-3.515 1.369,-3.585 1.342,-3.604 1.314,-3.626 1.254,-3.565 1.025,-3.357 0.922,-3.089 0.85,-2.882 c -0.11,0.35 -0.045,0.717 0.015,1.035 l 0.033,0.207 c 0.024,0.111 0.055,0.225 0.086,0.338 0.073,0.235 0.145,0.477 0.078,0.729 C 0.947,-0.096 0.301,0 0.109,0.013 L 0.1,0.021 C 0.057,0.024 0.023,0.03 0,0" />
        </g>
        <g
           transform="translate(96.8447,527.2119)"
           id="g13612">
          <path
             id="path13614"
             style="fill:#ee1d23;fill-opacity:1;fill-rule:nonzero;stroke:none"
             d="M 0,0 0,0 C -0.061,-0.02 -0.133,-0.033 -0.133,-0.082 -0.127,-0.137 -0.027,-0.143 0.006,-0.143 0.322,-0.154 0.598,-0.214 0.908,-0.52 1.133,-0.74 1.27,-1.174 1.303,-1.494 1.336,-1.877 1.676,-1.852 1.816,-1.846 1.91,-1.839 2.01,-1.764 2.074,-1.648 2.141,-1.543 2.26,-1.23 2.014,-0.726 1.783,-0.254 1.057,0.17 0,0" />
        </g>
        <g
           transform="translate(126.0889,529.1162)"
           id="g13616">
          <path
             id="path13618"
             style="fill:#ee1d23;fill-opacity:1;fill-rule:nonzero;stroke:none"
             d="m 0,0 0,0 c -0.059,-0.006 -0.113,-0.021 -0.131,-0.059 -0.006,-0.045 0.045,-0.086 0.098,-0.116 0.084,-0.052 0.232,-0.213 0.205,-0.662 -0.018,-0.329 -0.061,-1.165 -0.106,-1.795 -0.054,-0.796 -0.087,-1.446 0.045,-2.057 0.174,-0.828 0.875,-1.342 1.838,-1.342 1.266,0 2.344,1.018 2.748,2.025 l 0.006,0.024 0.027,0.052 c 0.038,0.086 0.018,0.116 0,0.131 C 4.686,-3.777 4.643,-3.81 4.576,-3.896 4.354,-4.197 3.729,-4.932 2.82,-5.161 2.256,-5.303 1.764,-5.289 1.332,-5.129 0.367,-4.768 0.604,-2.993 0.834,-1.967 l 0.092,0.414 C 1.041,-1.076 1.123,-0.727 1.031,-0.49 0.844,0.006 0.361,0.05 0,0" />
        </g>
        <g
           transform="translate(133.9404,529.3164)"
           id="g13620">
          <path
             id="path13622"
             style="fill:#ee1d23;fill-opacity:1;fill-rule:nonzero;stroke:none"
             d="M 0,0 0,0 C -0.051,-0.008 -0.1,-0.026 -0.105,-0.07 -0.121,-0.112 -0.072,-0.15 -0.061,-0.162 0.174,-0.345 0.18,-0.474 0.137,-0.709 0.08,-0.966 -0.34,-1.558 -0.717,-2.08 l -0.385,-0.544 c -0.207,-0.301 -0.246,-0.58 -0.109,-0.801 l 0.316,-0.494 c 0.403,-0.633 0.862,-1.341 1.114,-2.064 0.058,-0.178 0.156,-0.309 0.283,-0.364 0.115,-0.043 0.236,-0.049 0.352,-0.005 0.146,0.06 0.24,0.15 0.289,0.267 0.06,0.154 0.023,0.357 -0.11,0.659 -0.121,0.251 -0.74,0.93 -1.193,1.427 l -0.422,0.466 c -0.131,0.159 -0.24,0.416 -0.104,0.641 0.286,0.473 0.842,1.008 1.209,1.36 0.122,0.123 0.219,0.217 0.28,0.275 l 0.017,0.018 c 0.198,0.218 0.422,0.465 0.262,0.832 C 0.93,-0.062 0.268,0.073 0,0" />
        </g>
        <g
           transform="translate(101.1201,529.1162)"
           id="g13624">
          <path
             id="path13626"
             style="fill:#ee1d23;fill-opacity:1;fill-rule:nonzero;stroke:none"
             d="m 0,0 0,0 c -0.062,-0.006 -0.115,-0.021 -0.127,-0.059 -0.006,-0.045 0.045,-0.086 0.1,-0.116 C 0.059,-0.227 0.201,-0.388 0.174,-0.837 0.158,-1.166 0.113,-2.002 0.07,-2.632 0.016,-3.428 -0.018,-4.078 0.113,-4.689 c 0.176,-0.828 0.877,-1.342 1.84,-1.342 1.27,0 2.336,1.018 2.742,2.025 l 0.012,0.024 0.022,0.052 c 0.037,0.086 0.021,0.116 0,0.131 C 4.695,-3.777 4.646,-3.81 4.58,-3.896 4.355,-4.197 3.732,-4.932 2.824,-5.161 2.262,-5.303 1.768,-5.289 1.33,-5.129 0.377,-4.768 0.607,-2.993 0.836,-1.967 L 0.93,-1.553 C 1.045,-1.076 1.133,-0.727 1.039,-0.49 0.846,0.006 0.365,0.05 0,0" />
        </g>
        <g
           transform="translate(108.9736,529.3164)"
           id="g13628">
          <path
             id="path13630"
             style="fill:#ee1d23;fill-opacity:1;fill-rule:nonzero;stroke:none"
             d="M 0,0 0,0 C -0.043,-0.008 -0.098,-0.026 -0.104,-0.07 -0.121,-0.112 -0.07,-0.15 -0.055,-0.162 0.176,-0.345 0.182,-0.474 0.137,-0.709 0.088,-0.966 -0.34,-1.558 -0.717,-2.08 l -0.388,-0.544 c -0.204,-0.301 -0.241,-0.58 -0.11,-0.801 l 0.324,-0.494 c 0.403,-0.633 0.858,-1.341 1.112,-2.064 0.064,-0.178 0.156,-0.309 0.289,-0.364 0.109,-0.043 0.228,-0.049 0.344,-0.005 0.148,0.06 0.246,0.15 0.289,0.267 0.06,0.154 0.029,0.357 -0.114,0.659 -0.109,0.251 -0.734,0.93 -1.187,1.427 l -0.422,0.466 c -0.125,0.159 -0.236,0.416 -0.106,0.641 0.293,0.473 0.844,1.008 1.211,1.36 0.127,0.123 0.225,0.217 0.28,0.275 l 0.011,0.018 c 0.202,0.218 0.426,0.465 0.268,0.832 C 0.936,-0.062 0.268,0.073 0,0" />
        </g>
        <g
           transform="translate(117.6768,528.8047)"
           id="g13632">
          <path
             id="path13634"
             style="fill:#ee1d23;fill-opacity:1;fill-rule:nonzero;stroke:none"
             d="M 0,0 C -0.01,-0.017 -0.021,-0.052 0.016,-0.093 0.104,-0.197 0.23,-0.44 0.35,-0.654 0.42,-0.788 0.486,-0.919 0.535,-0.984 0.607,-1.101 0.756,-1.175 0.902,-1.079 1.039,-0.998 1.199,-0.717 1.035,-0.457 0.848,-0.153 0.264,0.017 0.082,0.038 0.045,0.042 0.012,0.027 0,0" />
        </g>
        <g
           transform="translate(119.999,526.8447)"
           id="g13636">
          <path
             id="path13638"
             style="fill:#ee1d23;fill-opacity:1;fill-rule:nonzero;stroke:none"
             d="M 0,0 C 0,0.099 0,0.611 0.004,0.648 0.01,0.67 0.01,0.67 0.049,0.67 l 1.236,0 c 0.051,0 0.051,-0.04 0.051,-0.063 0,-0.058 -0.012,-0.586 -0.018,-0.639 l 0,-0.038 -0.039,0 -1.23,0 C 0.016,-0.07 0,-0.07 0,0 M 0.01,1.6 0.437,1.592 c 0.334,0 0.833,-0.004 0.87,-0.01 l 0.029,0 C 1.336,1.579 1.34,1.571 1.34,1.571 l 0,-0.016 0,-0.399 0,-0.17 0,-0.027 c 0,-0.015 0,-0.033 -0.004,-0.036 0,0 0,-0.003 -0.024,-0.003 L 1.033,0.923 C 0.701,0.926 0.074,0.936 0.033,0.944 0.01,0.953 0,0.953 0,1.008 l 0,0.26 0,0.332 0.01,0 z M 0.195,2.693 C 0.17,2.666 0.164,2.623 0.174,2.559 0.207,2.418 0.201,2.08 0.158,1.96 0.137,1.896 0.115,1.867 0.086,1.851 0.049,1.834 -0.006,1.842 -0.109,1.887 L -0.166,1.908 C -0.279,1.949 -0.471,2.031 -0.592,2.055 -0.631,2.062 -0.67,2.067 -0.686,2.045 -0.701,2.031 -0.701,2.015 -0.697,1.987 c 0.017,-0.071 0.06,-0.809 0.06,-0.941 0,-0.123 -0.021,-0.152 -0.15,-0.219 L -0.975,0.723 C -1.299,0.541 -1.912,0.213 -2.158,0.107 -2.322,0.033 -2.426,0.033 -2.502,0.031 l -0.039,0 c -0.039,0 -0.094,-0.004 -0.104,-0.037 -0.021,-0.031 0.004,-0.064 0.01,-0.078 0.055,-0.107 0.362,-0.551 0.449,-0.654 0.028,-0.035 0.067,-0.047 0.104,-0.042 0.055,0.009 0.098,0.063 0.109,0.112 0.012,0.022 0.03,0.088 0.094,0.168 0.061,0.077 0.305,0.309 0.547,0.531 0.279,0.254 0.559,0.51 0.652,0.628 0.01,0.011 0.01,0.011 0.01,0.018 l 0,-0.007 0,-0.117 c 0,-0.295 0,-0.883 -0.027,-1.04 l -0.004,-0.015 c 0,-0.035 -0.012,-0.066 -0.012,-0.1 0,-0.017 0,-0.027 0.012,-0.041 0.004,-0.063 0.055,-0.215 0.301,-0.205 0.382,0.019 0.416,0.323 0.437,0.459 l 0.006,0.029 c 0,0.038 0.027,0.04 0.039,0.04 0.059,0.004 0.455,-0.01 0.775,-0.013 l 0.434,-0.006 c 0.016,0 0.027,-0.021 0.027,-0.038 l 0,-0.055 0.022,-0.244 c 0.006,-0.032 0.076,-0.15 0.191,-0.162 L 1.564,-0.84 c 0.055,-0.008 0.11,-0.014 0.192,0.01 0.103,0.035 0.285,0.154 0.307,0.262 0.003,0.027 0.033,0.128 0.021,0.29 L 2.063,0.641 c -0.004,0.38 -0.016,0.74 -0.016,0.755 0,0.094 0,0.099 0.012,0.107 L 2.084,1.52 2.201,1.609 c 0.047,0.045 0.08,0.094 0.08,0.137 0,0.045 -0.027,0.082 -0.064,0.115 C 2.117,1.941 1.789,2.107 1.625,2.176 1.588,2.195 1.537,2.201 1.461,2.127 1.422,2.097 1.406,2.062 1.395,2.031 L 1.383,2.009 1.352,1.949 C 1.324,1.889 1.307,1.855 1.252,1.851 1.186,1.848 0.537,1.851 0.496,1.851 0.475,1.855 0.469,1.858 0.469,1.858 l 0,0.003 0,0.009 c 0.017,0.026 0.187,0.185 0.291,0.293 0.033,0.026 0.049,0.032 0.082,0.05 l 0.045,0.02 c 0.07,0.037 0.119,0.099 0.119,0.164 l 0,0.004 C 1.006,2.459 0.973,2.499 0.918,2.527 0.824,2.563 0.42,2.693 0.346,2.715 0.271,2.729 0.229,2.724 0.195,2.693" />
        </g>
        <g
           transform="translate(120.333,526.3193)"
           id="g13640">
          <path
             id="path13642"
             style="fill:#ee1d23;fill-opacity:1;fill-rule:nonzero;stroke:none"
             d="m 0,0 c -0.023,-0.016 -0.033,-0.043 -0.033,-0.055 0,-0.016 -0.006,-0.029 -0.006,-0.04 0,-0.065 0.027,-0.189 0.039,-0.286 0.016,-0.068 0.016,-0.133 0.016,-0.199 0,-0.055 0,-0.108 -0.004,-0.149 l 0,-0.074 0,-0.008 -0.024,0 c -0.658,0.015 -2.197,0.048 -2.365,0.048 -0.115,0 -0.23,0.019 -0.318,0.035 -0.076,0.017 -0.141,0.022 -0.192,0.022 l -0.039,0.007 c -0.043,0.008 -0.064,0.008 -0.086,-0.024 -0.006,-0.009 -0.006,-0.023 0,-0.048 l 0.119,-0.247 c 0.051,-0.098 0.155,-0.076 0.237,-0.066 l 0.033,0.012 c 0.082,0.008 1.828,0.017 1.953,0.017 -0.016,-0.045 -0.043,-0.09 -0.07,-0.127 -0.444,-0.519 -1.522,-1.346 -2.52,-1.77 -0.092,-0.041 -0.097,-0.069 -0.097,-0.085 l 0,-0.016 c 0.005,-0.035 0.06,-0.034 0.087,-0.029 0.918,0.1 2.629,0.986 3.264,1.691 0.01,0.018 0.01,0.018 0.018,0.018 l 0,-0.018 C 0.004,-1.4 0.004,-1.473 0.004,-1.628 c -0.01,-0.38 -0.027,-1.079 -0.07,-1.393 -0.012,-0.055 -0.012,-0.103 -0.012,-0.15 0,-0.124 0.016,-0.214 0.072,-0.272 0.043,-0.051 0.104,-0.081 0.174,-0.092 0.133,-0.005 0.303,0.055 0.373,0.092 0.195,0.089 0.219,0.236 0.219,0.546 0,0.139 -0.024,0.768 -0.037,1.225 -0.018,0.244 -0.024,0.457 -0.024,0.501 0.006,-0.006 0.012,-0.015 0.018,-0.028 0.344,-0.557 0.863,-1.228 2.129,-1.932 0.043,-0.021 0.088,-0.038 0.131,-0.054 0.103,-0.028 0.169,-0.017 0.212,0.061 0.143,0.179 0.543,0.409 0.772,0.524 0.039,0.028 0.062,0.053 0.062,0.077 l -0.007,0.011 c 0,0.016 -0.01,0.047 -0.082,0.057 l -0.092,0.014 -0.143,0.02 c -0.613,0.101 -1.193,0.28 -1.631,0.52 -0.466,0.249 -0.881,0.56 -1.056,0.797 -0.01,0.016 -0.01,0.02 -0.01,0.032 l 0.004,0 0.017,0 c 0.043,0.006 1.34,0.006 2.03,0.006 l 0.552,-0.006 c 0.034,0.006 0.057,0.025 0.067,0.054 0.016,0.055 0,0.131 -0.076,0.192 -0.094,0.07 -0.285,0.224 -0.428,0.349 L 2.965,-0.314 C 2.922,-0.281 2.855,-0.248 2.807,-0.322 L 2.715,-0.424 C 2.627,-0.525 2.518,-0.65 2.473,-0.706 2.418,-0.793 2.391,-0.826 2.299,-0.826 c -0.088,0.012 -0.768,0.008 -1.266,0 l -0.103,0 c -0.061,0 -0.149,0.012 -0.207,0.015 l -0.024,0 0,0.008 c 0,0.026 -0.006,0.08 -0.006,0.133 0,0.039 0.006,0.082 0.006,0.111 0,0.034 0.061,0.078 0.121,0.127 l 0.032,0.028 c 0.033,0.021 0.05,0.054 0.05,0.095 0,0.008 0,0.02 -0.006,0.028 C 0.891,-0.227 0.848,-0.178 0.781,-0.16 0.656,-0.12 0.42,-0.071 0.225,-0.027 L 0.086,0.002 C 0.043,0.012 0.016,0.006 0,0" />
        </g>
        <g
           transform="translate(123.0322,529.0576)"
           id="g13644">
          <path
             id="path13646"
             style="fill:#ee1d23;fill-opacity:1;fill-rule:nonzero;stroke:none"
             d="m 0,0 c -0.029,-0.012 -0.045,-0.037 -0.051,-0.078 -0.045,-0.279 -0.467,-0.881 -0.683,-1.084 -0.051,-0.043 -0.057,-0.078 -0.051,-0.107 0.027,-0.035 0.072,-0.038 0.099,-0.024 0.165,0.049 0.723,0.367 0.827,0.443 0.06,0.049 0.267,0.116 0.406,0.153 l 0.14,0.05 c 0.055,0.016 0.073,0.052 0.083,0.077 0.005,0.044 -0.016,0.097 -0.069,0.148 -0.068,0.06 -0.265,0.188 -0.435,0.289 l -0.159,0.11 C 0.064,0 0.025,0.016 0,0" />
        </g>
        <g
           transform="translate(122.1162,527.5361)"
           id="g13648">
          <path
             id="path13650"
             style="fill:#ee1d23;fill-opacity:1;fill-rule:nonzero;stroke:none"
             d="m 0,0 c -0.021,-0.034 0.018,-0.072 0.039,-0.088 l 0.037,-0.034 c 0.301,-0.191 0.801,-0.761 0.887,-0.875 l 0.023,-0.038 c 0.086,-0.127 0.168,-0.236 0.328,-0.285 0.114,-0.031 0.227,0 0.313,0.079 0.098,0.096 0.131,0.253 0.113,0.32 -0.01,0.095 -0.054,0.246 -0.201,0.389 -0.23,0.224 -0.865,0.444 -1.238,0.54 C 0.273,0.013 0.219,0.021 0.131,0.027 L 0.084,0.031 C 0.062,0.031 0.018,0.043 0,0" />
        </g>
        <g
           transform="translate(65.7998,526.9854)"
           id="g13652">
          <path
             id="path13654"
             style="fill:#ee1d23;fill-opacity:1;fill-rule:evenodd;stroke:none"
             d="m 0,0 c -0.018,-0.027 0,-0.068 0.031,-0.107 0.11,-0.104 0.219,-0.397 0.295,-0.59 L 0.404,-0.89 c 0.076,-0.153 0.219,-0.192 0.328,-0.157 0.116,0.037 0.219,0.198 0.252,0.297 0.037,0.117 0,0.227 -0.136,0.402 C 0.693,-0.146 0.234,0.008 0.092,0.029 0.031,0.035 0.004,0.013 0,0" />
        </g>
        <g
           transform="translate(69.0439,524.5732)"
           id="g13656">
          <path
             id="path13658"
             style="fill:#ee1d23;fill-opacity:1;fill-rule:evenodd;stroke:none"
             d="m 0,0 c -0.023,-0.021 -0.004,-0.054 0.01,-0.085 0.177,-0.287 0.172,-0.714 0.15,-0.944 -0.012,-0.141 0.061,-0.366 0.223,-0.412 0.164,-0.047 0.351,0.023 0.461,0.117 0.07,0.06 0.23,0.246 0.092,0.615 C 0.822,-0.389 0.24,-0.016 0.09,0.018 0.057,0.024 0.018,0.027 0,0" />
        </g>
        <g
           transform="translate(137.6943,523.8076)"
           id="g13660">
          <path
             id="path13662"
             style="fill:#ee1d23;fill-opacity:1;fill-rule:evenodd;stroke:none"
             d="M 0,0 C 0,0.367 0.295,0.662 0.656,0.662 1.023,0.662 1.318,0.367 1.318,0 1.318,-0.361 1.023,-0.657 0.656,-0.657 0.295,-0.657 0,-0.361 0,0 m -0.395,0 c 0,-0.576 0.477,-1.045 1.051,-1.045 0.58,0 1.051,0.469 1.051,1.045 0,0.58 -0.471,1.051 -1.051,1.051 C 0.082,1.051 -0.395,0.58 -0.395,0" />
        </g>
        <g
           transform="translate(70.4619,524.6455)"
           id="g13664">
          <path
             id="path13666"
             style="fill:#ee1d23;fill-opacity:1;fill-rule:evenodd;stroke:none"
             d="M 0,0 0,0 C -0.021,-0.027 -0.021,-0.072 0.033,-0.126 0.285,-0.34 0.398,-0.641 0.549,-1.018 L 0.662,-1.304 C 0.75,-1.523 0.859,-1.544 0.98,-1.565 1.1,-1.6 1.275,-1.502 1.385,-1.348 1.418,-1.301 1.512,-1.137 1.43,-0.898 1.402,-0.799 1.33,-0.69 1.238,-0.589 0.947,-0.264 0.357,-0.061 0.115,0.01 0.066,0.026 0.027,0.029 0,0" />
        </g>
        <g
           transform="translate(78.542,526.9854)"
           id="g13668">
          <path
             id="path13670"
             style="fill:#ee1d23;fill-opacity:1;fill-rule:evenodd;stroke:none"
             d="m 0,0 c -0.225,-0.211 -0.992,-0.737 -1.529,-1.016 l -0.016,-0.005 0,0.019 c 0.166,0.421 0.881,1.251 1.184,1.36 C -0.199,0.421 0.021,0.4 0.064,0.348 0.098,0.314 0.107,0.271 0.107,0.227 0.107,0.145 0.064,0.062 0,0 m -2.24,1.809 c 0.011,0.027 0.051,0.136 0.062,0.164 0.014,0.033 0.037,0.044 0.059,0.033 C -2.098,2 -2.064,1.994 -2.047,1.973 -2.031,1.956 -2.016,1.927 -2.043,1.902 -2.064,1.868 -2.125,1.768 -2.174,1.756 c -0.037,-0.008 -0.045,-0.01 -0.066,0 -0.016,0.009 -0.004,0.031 0,0.053 M 0.766,0.506 c -0.241,0.285 -0.76,0.421 -1.264,0.12 -0.424,-0.252 -0.971,-1.022 -1.145,-1.304 -0.056,0.112 -0.169,0.266 -0.31,0.367 -0.123,0.086 -0.27,0.147 -0.451,0.175 -0.16,0.023 -0.344,0.004 -0.487,-0.048 -0.011,-0.013 -0.16,-0.068 -0.23,-0.109 0.176,0.324 0.58,1.103 0.635,1.302 0.011,0.036 0.027,0.044 0.076,0.065 l 0.06,0.024 c 0.127,0.041 0.295,0.097 0.514,0.214 0.248,0.139 0.406,0.278 0.406,0.489 0,0.021 0,0.046 -0.006,0.067 -0.009,0.071 -0.115,0.2 -0.23,0.208 l -0.033,0 c -0.119,0.022 -0.246,0.033 -0.317,0.033 -0.093,0 -0.097,0.012 -0.13,0.11 l -0.028,0.05 C -2.223,2.404 -2.316,2.449 -2.465,2.477 -2.623,2.503 -2.846,2.433 -2.941,2.346 -2.963,2.32 -2.975,2.301 -2.975,2.277 l 0,-0.008 c 0.008,-0.045 0.057,-0.072 0.106,-0.103 l 0.066,-0.041 c 0.049,-0.032 0.061,-0.18 0.061,-0.287 0,-0.029 -0.006,-0.063 -0.006,-0.082 l 0,-0.029 0,-0.02 c 0,-0.09 -0.006,-0.121 -0.063,-0.129 C -3.006,1.546 -3.498,1.535 -3.777,1.633 -3.859,1.658 -3.941,1.701 -4.02,1.756 -4.062,1.787 -4.1,1.787 -4.129,1.768 -4.16,1.736 -4.16,1.658 -4.1,1.529 -3.887,1.025 -3.313,1.004 -3.006,0.992 l 0.061,0 0,-0.01 C -2.957,0.933 -3.191,0.479 -3.41,0.101 c -0.1,-0.181 -0.313,-0.437 -0.504,-0.662 -0.152,-0.189 -0.307,-0.36 -0.367,-0.468 -0.067,-0.114 -0.098,-0.217 -0.098,-0.307 0,-0.107 0.037,-0.189 0.125,-0.271 0.188,-0.169 0.416,-0.147 0.611,0.049 0.079,0.078 0.139,0.186 0.221,0.324 0.098,0.173 0.207,0.372 0.371,0.541 0.219,0.23 0.406,0.268 0.528,0.263 0.164,-0.011 0.207,-0.069 0.25,-0.203 0.062,-0.153 0.062,-0.443 0.062,-0.597 l 0,-0.067 c 0.002,-0.115 0.002,-0.132 -0.117,-0.215 l -0.027,-0.013 c -0.717,-0.454 -1.055,-0.996 -0.963,-1.521 0.213,-1.213 2.502,-0.827 2.525,-0.825 0.256,0.041 0.432,0.137 0.508,0.275 0.055,0.09 0.064,0.197 0.027,0.309 -0.027,0.087 -0.097,0.164 -0.197,0.213 -0.137,0.066 -0.307,0.076 -0.455,0.022 -0.104,-0.038 -0.477,-0.11 -0.848,-0.126 -0.273,-0.011 -0.51,0 -0.717,0.032 -0.16,0.025 -0.416,0.173 -0.433,0.453 -0.004,0.019 -0.004,0.035 -0.004,0.052 0,0.404 0.381,0.639 0.59,0.768 l 0.066,0.047 c 0,0 0.004,0 0.012,0.002 l 0,-0.019 0,-0.009 c 0,-0.05 -0.012,-0.234 -0.016,-0.355 L -2.268,-2.23 -2.273,-2.294 c 0,-0.038 -0.004,-0.077 -0.004,-0.127 0,-0.106 0.021,-0.22 0.136,-0.306 0.18,-0.13 0.409,-0.019 0.547,0.151 0.143,0.176 0.11,0.709 0.094,0.969 l 0,0.095 c -0.006,0.09 -0.006,0.09 0.109,0.14 0.071,0.039 0.459,0.206 0.893,0.364 l 0.338,0.126 c 0.273,0.096 0.525,0.185 0.707,0.277 0.209,0.104 0.34,0.257 0.377,0.464 0.051,0.252 -0.043,0.512 -0.158,0.647" />
        </g>
        <g
           transform="translate(87.2178,524.4365)"
           id="g13672">
          <path
             id="path13674"
             style="fill:#ee1d23;fill-opacity:1;fill-rule:nonzero;stroke:none"
             d="m 0,0 c -0.023,-0.092 -0.047,-0.109 -0.145,-0.109 -0.103,0.011 -0.191,0.072 -0.24,0.126 -0.015,0.01 -0.015,0.02 0.012,0.048 0.076,0.072 0.24,0.185 0.322,0.228 C -0.035,0.301 -0.014,0.301 0,0.252 0.01,0.197 0.016,0.078 0,0 m 0.381,3.125 c 0,0.033 0.027,0.068 0.084,0.042 C 0.52,3.14 0.568,3.109 0.588,3.078 0.623,3.041 0.623,3.002 0.602,2.961 0.588,2.92 0.469,2.865 0.398,2.84 0.377,2.838 0.371,2.838 0.365,2.863 c -0.006,0.082 0,0.178 0.016,0.262 m 3.24,-1.98 C 3.332,1.74 2.877,1.852 2.293,1.828 1.883,1.812 0.891,1.455 0.48,1.205 0.426,1.166 0.408,1.16 0.398,1.16 L 0.393,1.205 C 0.371,1.281 0.359,1.908 0.359,2.035 l 0,0.018 c 0,0.088 0.012,0.109 0.067,0.136 L 0.568,2.256 C 0.695,2.311 0.852,2.381 0.93,2.43 l 0.058,0.039 c 0.149,0.093 0.319,0.191 0.319,0.427 0,0.016 0,0.034 -0.006,0.049 C 1.279,3.197 0.885,3.248 0.65,3.273 L 0.568,3.289 C 0.52,3.295 0.49,3.313 0.469,3.331 0.465,3.344 0.465,3.358 0.465,3.377 l 0,0.039 C 0.469,3.454 0.49,3.514 0.52,3.598 l 0.058,0.168 c 0.01,0.039 0.01,0.072 0.01,0.095 0,0.075 -0.031,0.126 -0.098,0.195 -0.086,0.092 -0.365,0.268 -0.679,0.253 -0.338,-0.017 -0.545,-0.231 -0.54,-0.548 0,-0.105 0.043,-0.131 0.065,-0.138 0.043,-0.011 0.082,0.007 0.103,0.045 0.034,0.037 0.106,0.08 0.198,0.084 0.088,0.009 0.166,-0.026 0.197,-0.076 0.033,-0.064 0.043,-0.533 0.055,-0.709 l 0,-0.098 0,-0.05 c 0.006,-0.1 0.006,-0.137 -0.055,-0.163 -0.098,-0.039 -0.59,-0.14 -0.787,-0.135 -0.192,0 -0.383,0.079 -0.449,0.149 -0.049,0.049 -0.082,0.083 -0.116,0.072 -0.033,-0.004 -0.048,-0.046 -0.06,-0.082 -0.055,-0.191 0.06,-0.447 0.307,-0.643 0.097,-0.08 0.248,-0.128 0.4,-0.132 0.185,0 0.437,0.043 0.726,0.107 0.034,0.012 0.045,0.012 0.051,0.009 0,-0.002 0,-0.013 0.004,-0.024 0.018,-0.092 0.055,-0.872 0.043,-0.954 L -0.062,0.971 c 0,-0.047 0,-0.062 -0.032,-0.073 C -0.111,0.881 -0.254,0.816 -0.396,0.742 L -0.686,0.598 C -0.834,0.52 -0.986,0.492 -1.068,0.531 -1.145,0.575 -1.326,0.598 -1.467,0.542 -1.566,0.498 -1.633,0.428 -1.664,0.328 c -0.047,-0.131 -0.027,-0.25 0.041,-0.359 0.133,-0.199 0.406,-0.297 0.527,-0.309 0.192,-0.018 0.367,0.11 0.483,0.199 0.052,0.043 0.064,0.041 0.107,0.004 0.018,-0.021 0.084,-0.142 0.133,-0.246 0.049,-0.114 0.109,-0.246 0.168,-0.344 0.051,-0.085 0.24,-0.11 0.396,-0.046 0.108,0.046 0.207,0.144 0.246,0.24 0.094,0.265 0.038,0.82 0.02,0.999 l 0,0.02 C 0.441,0.581 0.49,0.633 0.602,0.706 0.924,0.924 1.684,1.43 2.227,1.447 2.408,1.455 2.615,1.385 2.762,1.264 2.916,1.127 3.004,0.909 2.994,0.668 2.988,0.279 2.408,-0.111 1.963,-0.128 1.854,-0.137 1.773,-0.109 1.717,-0.055 1.652,0.006 1.635,0.104 1.635,0.17 1.635,0.284 1.75,0.515 1.789,0.581 1.82,0.635 1.801,0.668 1.795,0.682 1.773,0.701 1.74,0.701 1.701,0.684 1.607,0.646 1.406,0.51 1.264,0.274 1.039,-0.092 1.115,-0.476 1.477,-0.708 1.941,-1.02 2.713,-0.73 3.092,-0.479 c 0.596,0.402 0.814,1.07 0.529,1.624" />
        </g>
      </g>
    </g>
  </g>
</svg>
